<svg width="187" height="51" viewBox="0 0 187 51" fill="none" xmlns="http://www.w3.org/2000/svg">
<path d="M3.34094 4.60006V9.03206H8.28494V4.60006H9.54894V14.6641H8.28494V10.1201H3.34094V14.6641H2.07694V4.60006H3.34094ZM15.4201 13.8161C16.4761 13.8161 17.0787 13.3521 17.2281 12.4241H18.5241C18.4067 13.1921 18.0654 13.7894 17.5001 14.2161C16.9454 14.6321 16.2521 14.8401 15.4201 14.8401C14.3961 14.8401 13.5641 14.4774 12.9241 13.7521C12.2841 13.0161 11.9641 12.0401 11.9641 10.8241C11.9641 9.60806 12.2841 8.6374 12.9241 7.91206C13.5747 7.18673 14.4334 6.82406 15.5001 6.82406C16.5774 6.82406 17.3774 7.24006 17.9001 8.07206C18.4334 8.90406 18.6201 9.9174 18.4601 11.1121H13.2281C13.2281 11.9014 13.4201 12.5521 13.8041 13.0641C14.1881 13.5654 14.7267 13.8161 15.4201 13.8161ZM16.3481 8.02406C16.1027 7.89606 15.8041 7.83206 15.4521 7.83206C14.8014 7.83206 14.2841 8.05606 13.9001 8.50406C13.5267 8.9414 13.3081 9.49073 13.2441 10.1521H17.3241C17.3241 9.0854 16.9987 8.37606 16.3481 8.02406ZM25.7504 9.70406C25.7504 9.01073 25.6064 8.51473 25.3184 8.21606C25.0304 7.9174 24.6091 7.76806 24.0544 7.76806C23.5104 7.76806 23.0678 7.88006 22.7264 8.10406C22.3958 8.3174 22.2304 8.65873 22.2304 9.12806H20.8384C20.8384 7.95473 21.4678 7.2294 22.7264 6.95206C23.1104 6.86673 23.5264 6.82406 23.9744 6.82406C24.9238 6.82406 25.6651 7.06406 26.1984 7.54406C26.7318 8.02406 26.9984 8.75473 26.9984 9.73606V14.6641H25.9104L25.7824 13.3841C25.3131 14.3547 24.4651 14.8401 23.2384 14.8401C22.4171 14.8401 21.7558 14.6107 21.2544 14.1521C20.7638 13.6934 20.5184 13.1227 20.5184 12.4401C20.5184 11.7574 20.7904 11.2241 21.3344 10.8401C21.8891 10.4561 22.5771 10.2641 23.3984 10.2641C24.2198 10.2641 25.0038 10.4027 25.7504 10.6801V9.70406ZM25.7504 11.4801C24.9931 11.2667 24.3318 11.1601 23.7664 11.1601C23.2011 11.1601 22.7424 11.2614 22.3904 11.4641C22.0384 11.6667 21.8624 11.9867 21.8624 12.4241C21.8624 13.3841 22.4064 13.8641 23.4944 13.8641C24.1131 13.8641 24.6411 13.6454 25.0784 13.2081C25.5264 12.7601 25.7504 12.1841 25.7504 11.4801ZM29.9676 3.76806H31.2316V14.6641H29.9676V3.76806ZM38.4519 14.4401C37.5346 14.8667 36.6973 14.9574 35.9399 14.7121C35.3959 14.5414 35.0119 14.1841 34.7879 13.6401C34.6706 13.3734 34.6119 13.0534 34.6119 12.6801V7.97606H33.3799V7.01606H34.6119V4.88806H35.8599V7.01606H38.2599V7.97606H35.8599V12.6641C35.8599 13.4427 36.2226 13.8321 36.9479 13.8321C37.3426 13.8321 37.7853 13.7361 38.2759 13.5441L38.4519 14.4401ZM41.7316 8.42406C42.2436 7.3574 43.0916 6.82406 44.2756 6.82406C45.1822 6.82406 45.8862 7.12273 46.3876 7.72006C46.8996 8.3174 47.1556 9.1334 47.1556 10.1681V14.6641H45.9076V10.1681C45.9076 9.43206 45.7316 8.8774 45.3796 8.50406C45.0382 8.13073 44.5422 7.94406 43.8916 7.94406C43.2409 7.94406 42.7182 8.2214 42.3236 8.77606C41.9289 9.32006 41.7316 10.0774 41.7316 11.0481V14.6641H40.4676V3.76806H41.7316V8.42406ZM48.5878 16.8881C49.1105 17.2934 49.6598 17.4961 50.2358 17.4961C50.6625 17.4961 51.0305 17.2827 51.3398 16.8561C51.5638 16.5467 51.7665 16.0774 51.9478 15.4481L52.1718 14.6641L49.0358 7.01606H50.4438L52.7638 13.1121L54.5718 7.01606H55.8518L52.9878 16.1841C52.7425 16.9627 52.4171 17.5601 52.0118 17.9761C51.6171 18.3921 51.1105 18.6001 50.4918 18.6001C49.8838 18.6001 49.2491 18.4134 48.5878 18.0401V16.8881ZM64.9023 4.60006C66.0116 4.60006 66.8543 4.88273 67.4303 5.44806C68.017 6.00273 68.3103 6.75473 68.3103 7.70406C68.3103 8.6534 68.017 9.4054 67.4303 9.96006C66.8543 10.5041 66.0116 10.7761 64.9023 10.7761H62.9183V14.6641H61.6543V4.60006H64.9023ZM64.9023 9.68806C65.5956 9.68806 66.1183 9.51206 66.4703 9.16006C66.833 8.80806 67.0143 8.32806 67.0143 7.72006C67.0143 7.1014 66.833 6.61073 66.4703 6.24806C66.1183 5.87473 65.5956 5.68806 64.9023 5.68806H62.9183V9.68806H64.9023ZM73.2977 6.82406C74.3644 6.82406 75.223 7.17073 75.8737 7.86406C76.535 8.5574 76.8657 9.5494 76.8657 10.8401C76.8657 12.1201 76.535 13.1067 75.8737 13.8001C75.223 14.4934 74.3644 14.8401 73.2977 14.8401C72.231 14.8401 71.367 14.4934 70.7057 13.8001C70.055 13.1067 69.7297 12.1201 69.7297 10.8401C69.7297 9.5494 70.055 8.5574 70.7057 7.86406C71.367 7.17073 72.231 6.82406 73.2977 6.82406ZM75.5857 10.8401C75.5857 9.92273 75.3937 9.20806 75.0097 8.69606C74.6257 8.1734 74.0604 7.91206 73.3137 7.91206C72.5777 7.91206 72.0124 8.1734 71.6177 8.69606C71.223 9.20806 71.0257 9.92273 71.0257 10.8401C71.0257 11.7467 71.2124 12.4614 71.5857 12.9841C71.959 13.4961 72.5137 13.7521 73.2497 13.7521C73.9964 13.7521 74.5724 13.4961 74.9777 12.9841C75.383 12.4614 75.5857 11.7467 75.5857 10.8401ZM79.3601 7.00006H80.6241V14.6641H79.3601V7.00006ZM79.9841 5.20806C79.7281 5.20806 79.5254 5.13873 79.3761 5.00006C79.2374 4.85073 79.1681 4.65873 79.1681 4.42406C79.1681 4.17873 79.2374 3.98673 79.3761 3.84806C79.5254 3.69873 79.7281 3.62406 79.9841 3.62406C80.2401 3.62406 80.4427 3.69873 80.5921 3.84806C80.7521 3.98673 80.8321 4.17873 80.8321 4.42406C80.8321 4.65873 80.7521 4.85073 80.5921 5.00006C80.4427 5.13873 80.2401 5.20806 79.9841 5.20806ZM85.2773 8.48806C85.7786 7.37873 86.6373 6.82406 87.8533 6.82406C88.76 6.82406 89.464 7.12273 89.9653 7.72006C90.4773 8.3174 90.7333 9.1334 90.7333 10.1681V14.6641H89.4853V10.1681C89.4853 9.43206 89.3093 8.8774 88.9573 8.50406C88.616 8.13073 88.1253 7.94406 87.4853 7.94406C86.8453 7.94406 86.328 8.2054 85.9333 8.72806C85.5386 9.25073 85.3306 9.97606 85.3093 10.9041V14.6641H84.0453V7.01606H85.1333L85.2773 8.48806ZM97.7019 14.4401C96.7846 14.8667 95.9473 14.9574 95.1899 14.7121C94.6459 14.5414 94.2619 14.1841 94.0379 13.6401C93.9206 13.3734 93.8619 13.0534 93.8619 12.6801V7.97606H92.6299V7.01606H93.8619V4.88806H95.1099V7.01606H97.5099V7.97606H95.1099V12.6641C95.1099 13.4427 95.4726 13.8321 96.1979 13.8321C96.5926 13.8321 97.0353 13.7361 97.5259 13.5441L97.7019 14.4401ZM99.3176 8.88806C99.3176 8.25873 99.5842 7.7574 100.118 7.38406C100.662 7.01073 101.392 6.82406 102.31 6.82406C103.227 6.82406 103.942 7.01606 104.454 7.40006C104.976 7.78406 105.248 8.2694 105.27 8.85606H104.038C103.942 8.16273 103.355 7.81606 102.278 7.81606C101.755 7.81606 101.35 7.9334 101.062 8.16806C100.784 8.40273 100.646 8.65873 100.646 8.93606C100.646 9.20273 100.752 9.43206 100.966 9.62406C101.179 9.8054 101.52 9.9654 101.99 10.1041L103.526 10.6161C104.176 10.8187 104.672 11.0801 105.014 11.4001C105.366 11.7094 105.542 12.1414 105.542 12.6961C105.542 13.2401 105.259 13.7361 104.694 14.1841C104.128 14.6214 103.339 14.8401 102.326 14.8401C101.312 14.8401 100.523 14.6161 99.9576 14.1681C99.3922 13.7094 99.0936 13.1227 99.0616 12.4081H100.278C100.299 12.8881 100.491 13.2507 100.854 13.4961C101.227 13.7307 101.691 13.8481 102.246 13.8481C102.8 13.8481 103.259 13.7307 103.622 13.4961C103.984 13.2614 104.166 12.9841 104.166 12.6641C104.166 12.3334 104.059 12.0827 103.846 11.9121C103.632 11.7414 103.286 11.5921 102.806 11.4641L101.318 10.9681C99.9842 10.5734 99.3176 9.88006 99.3176 8.88806Z" fill="#FDFDFD"/>
<rect x="0.460938" y="36.3281" width="168.397" height="7.05474" rx="3.52737" fill="#F6F7F9"/>
<rect x="0.460938" y="36.3281" width="138.783" height="7.05474" rx="3.52737" fill="#F5DB13"/>
<path d="M1.13294 20.6812C1.93294 20.5639 2.63694 20.2812 3.24494 19.8332H4.66894V30.2812H2.78094V22.0892C2.23694 22.3559 1.6876 22.4892 1.13294 22.4892V20.6812ZM11.2357 19.6892C11.8757 19.6892 12.457 19.8012 12.9797 20.0252C13.513 20.2386 13.9664 20.5692 14.3397 21.0172C15.1504 21.9666 15.5557 23.3266 15.5557 25.0972C15.5557 26.8679 15.1504 28.2279 14.3397 29.1772C13.593 30.0626 12.5637 30.5053 11.2517 30.5053C9.92902 30.5053 8.88902 30.0626 8.13169 29.1772C7.33169 28.2492 6.93169 26.8892 6.93169 25.0972C6.93169 23.3052 7.33169 21.9452 8.13169 21.0172C8.88902 20.1319 9.92369 19.6892 11.2357 19.6892ZM13.6037 25.0972C13.6037 23.9026 13.3957 22.9906 12.9797 22.3612C12.5744 21.7212 11.993 21.4012 11.2357 21.4012C10.489 21.4012 9.90769 21.7212 9.49169 22.3612C9.08635 22.9906 8.88369 23.9026 8.88369 25.0972C8.88369 26.2919 9.08635 27.2039 9.49169 27.8332C9.90769 28.4519 10.489 28.7612 11.2357 28.7612C11.993 28.7612 12.5744 28.4519 12.9797 27.8332C13.3957 27.2039 13.6037 26.2919 13.6037 25.0972ZM21.3607 19.6892C22.0007 19.6892 22.582 19.8012 23.1047 20.0252C23.638 20.2386 24.0914 20.5692 24.4647 21.0172C25.2754 21.9666 25.6807 23.3266 25.6807 25.0972C25.6807 26.8679 25.2754 28.2279 24.4647 29.1772C23.718 30.0626 22.6887 30.5053 21.3767 30.5053C20.054 30.5053 19.014 30.0626 18.2567 29.1772C17.4567 28.2492 17.0567 26.8892 17.0567 25.0972C17.0567 23.3052 17.4567 21.9452 18.2567 21.0172C19.014 20.1319 20.0487 19.6892 21.3607 19.6892ZM23.7287 25.0972C23.7287 23.9026 23.5207 22.9906 23.1047 22.3612C22.6994 21.7212 22.118 21.4012 21.3607 21.4012C20.614 21.4012 20.0327 21.7212 19.6167 22.3612C19.2114 22.9906 19.0087 23.9026 19.0087 25.0972C19.0087 26.2919 19.2114 27.2039 19.6167 27.8332C20.0327 28.4519 20.614 28.7612 21.3607 28.7612C22.118 28.7612 22.6994 28.4519 23.1047 27.8332C23.5207 27.2039 23.7287 26.2919 23.7287 25.0972ZM31.4857 19.6892C32.1257 19.6892 32.707 19.8012 33.2297 20.0252C33.763 20.2386 34.2164 20.5692 34.5897 21.0172C35.4004 21.9666 35.8057 23.3266 35.8057 25.0972C35.8057 26.8679 35.4004 28.2279 34.5897 29.1772C33.843 30.0626 32.8137 30.5053 31.5017 30.5053C30.179 30.5053 29.139 30.0626 28.3817 29.1772C27.5817 28.2492 27.1817 26.8892 27.1817 25.0972C27.1817 23.3052 27.5817 21.9452 28.3817 21.0172C29.139 20.1319 30.1737 19.6892 31.4857 19.6892ZM33.8537 25.0972C33.8537 23.9026 33.6457 22.9906 33.2297 22.3612C32.8244 21.7212 32.243 21.4012 31.4857 21.4012C30.739 21.4012 30.1577 21.7212 29.7417 22.3612C29.3364 22.9906 29.1337 23.9026 29.1337 25.0972C29.1337 26.2919 29.3364 27.2039 29.7417 27.8332C30.1577 28.4519 30.739 28.7612 31.4857 28.7612C32.243 28.7612 32.8244 28.4519 33.2297 27.8332C33.6457 27.2039 33.8537 26.2919 33.8537 25.0972ZM38.4107 30.3613C38.112 30.3079 37.856 30.1906 37.6427 30.0092C37.44 29.8172 37.3387 29.5666 37.3387 29.2572C37.3387 28.9372 37.4614 28.6652 37.7067 28.4412C37.952 28.2172 38.288 28.1052 38.7147 28.1052C39.1414 28.1052 39.488 28.2706 39.7547 28.6012C40.0214 28.9319 40.1547 29.3372 40.1547 29.8172C40.1547 30.5959 39.8027 31.3053 39.0987 31.9453C38.8747 32.1479 38.624 32.3186 38.3467 32.4573L36.9387 31.7533C37.2907 31.5719 37.6 31.3693 37.8667 31.1453C38.144 30.9213 38.3254 30.6599 38.4107 30.3613ZM45.6576 19.6892C46.2976 19.6892 46.8789 19.8012 47.4016 20.0252C47.9349 20.2386 48.3882 20.5692 48.7616 21.0172C49.5722 21.9666 49.9776 23.3266 49.9776 25.0972C49.9776 26.8679 49.5722 28.2279 48.7616 29.1772C48.0149 30.0626 46.9856 30.5053 45.6736 30.5053C44.3509 30.5053 43.3109 30.0626 42.5536 29.1772C41.7536 28.2492 41.3536 26.8892 41.3536 25.0972C41.3536 23.3052 41.7536 21.9452 42.5536 21.0172C43.3109 20.1319 44.3456 19.6892 45.6576 19.6892ZM48.0256 25.0972C48.0256 23.9026 47.8176 22.9906 47.4016 22.3612C46.9962 21.7212 46.4149 21.4012 45.6576 21.4012C44.9109 21.4012 44.3296 21.7212 43.9136 22.3612C43.5082 22.9906 43.3056 23.9026 43.3056 25.0972C43.3056 26.2919 43.5082 27.2039 43.9136 27.8332C44.3296 28.4519 44.9109 28.7612 45.6576 28.7612C46.4149 28.7612 46.9962 28.4519 47.4016 27.8332C47.8176 27.2039 48.0256 26.2919 48.0256 25.0972ZM55.7826 19.6892C56.4226 19.6892 57.0039 19.8012 57.5266 20.0252C58.0599 20.2386 58.5132 20.5692 58.8866 21.0172C59.6972 21.9666 60.1026 23.3266 60.1026 25.0972C60.1026 26.8679 59.6972 28.2279 58.8866 29.1772C58.1399 30.0626 57.1106 30.5053 55.7986 30.5053C54.4759 30.5053 53.4359 30.0626 52.6786 29.1772C51.8786 28.2492 51.4786 26.8892 51.4786 25.0972C51.4786 23.3052 51.8786 21.9452 52.6786 21.0172C53.4359 20.1319 54.4706 19.6892 55.7826 19.6892ZM58.1506 25.0972C58.1506 23.9026 57.9426 22.9906 57.5266 22.3612C57.1212 21.7212 56.5399 21.4012 55.7826 21.4012C55.0359 21.4012 54.4546 21.7212 54.0386 22.3612C53.6332 22.9906 53.4306 23.9026 53.4306 25.0972C53.4306 26.2919 53.6332 27.2039 54.0386 27.8332C54.4546 28.4519 55.0359 28.7612 55.7826 28.7612C56.5399 28.7612 57.1212 28.4519 57.5266 27.8332C57.9426 27.2039 58.1506 26.2919 58.1506 25.0972ZM65.9076 19.6892C66.5476 19.6892 67.1289 19.8012 67.6516 20.0252C68.1849 20.2386 68.6382 20.5692 69.0116 21.0172C69.8222 21.9666 70.2276 23.3266 70.2276 25.0972C70.2276 26.8679 69.8222 28.2279 69.0116 29.1772C68.2649 30.0626 67.2356 30.5053 65.9236 30.5053C64.6009 30.5053 63.5609 30.0626 62.8036 29.1772C62.0036 28.2492 61.6036 26.8892 61.6036 25.0972C61.6036 23.3052 62.0036 21.9452 62.8036 21.0172C63.5609 20.1319 64.5956 19.6892 65.9076 19.6892ZM68.2756 25.0972C68.2756 23.9026 68.0676 22.9906 67.6516 22.3612C67.2462 21.7212 66.6649 21.4012 65.9076 21.4012C65.1609 21.4012 64.5796 21.7212 64.1636 22.3612C63.7582 22.9906 63.5556 23.9026 63.5556 25.0972C63.5556 26.2919 63.7582 27.2039 64.1636 27.8332C64.5796 28.4519 65.1609 28.7612 65.9076 28.7612C66.6649 28.7612 67.2462 28.4519 67.6516 27.8332C68.0676 27.2039 68.2756 26.2919 68.2756 25.0972Z" fill="#FDFDFD"/>
</svg>
