<svg width="146" height="167" viewBox="0 0 146 167" fill="none" xmlns="http://www.w3.org/2000/svg">
<g filter="url(#filter0_d)">
<path d="M79.0201 141.956C113.68 141.956 141.777 113.807 141.777 79.0842C141.777 44.3613 113.68 16.2129 79.0201 16.2129C44.3606 16.2129 16.2635 44.3613 16.2635 79.0842C16.2635 113.807 44.3606 141.956 79.0201 141.956Z" fill="#1D1E1D"/>
<path d="M145.623 72.0981C142.135 38.3316 113.65 12 79.02 12C44.3903 12 15.9082 38.3316 12.4199 72.0981H145.623Z" fill="#C5312A"/>
<path d="M12.4199 86.0701C15.9082 119.837 44.3935 146.168 79.02 146.168C113.647 146.168 142.135 119.837 145.62 86.0701H12.4199Z" fill="#E7E7E9"/>
<path d="M79.0198 100.222C90.6726 100.222 100.119 90.7583 100.119 79.0843C100.119 67.4102 90.6726 57.9465 79.0198 57.9465C67.3671 57.9465 57.9207 67.4102 57.9207 79.0843C57.9207 90.7583 67.3671 100.222 79.0198 100.222Z" fill="#1D1E1D"/>
<path d="M94.3438 85.1918C97.7096 76.7168 93.5803 67.113 85.1208 63.7411C76.6612 60.3691 67.0749 64.506 63.7092 72.981C60.3434 81.456 64.4727 91.0598 72.9322 94.4317C81.3917 97.8037 90.978 93.6668 94.3438 85.1918Z" fill="#F7F7F7"/>
<path d="M79.021 90.2256C85.1628 90.2256 90.1418 85.2376 90.1418 79.0845C90.1418 72.9314 85.1628 67.9433 79.021 67.9433C72.8791 67.9433 67.9002 72.9314 67.9002 79.0845C67.9002 85.2376 72.8791 90.2256 79.021 90.2256Z" fill="#B8B5B5"/>
<path d="M79.0208 89.4051C84.7102 89.4051 89.3224 84.7845 89.3224 79.0847C89.3224 73.385 84.7102 68.7644 79.0208 68.7644C73.3314 68.7644 68.7193 73.385 68.7193 79.0847C68.7193 84.7845 73.3314 89.4051 79.0208 89.4051Z" fill="#F7F7F7"/>
</g>
<defs>
<filter id="filter0_d" x="0.419907" y="0" width="165.203" height="166.168" filterUnits="userSpaceOnUse" color-interpolation-filters="sRGB">
<feFlood flood-opacity="0" result="BackgroundImageFix"/>
<feColorMatrix in="SourceAlpha" type="matrix" values="0 0 0 0 0 0 0 0 0 0 0 0 0 0 0 0 0 0 127 0"/>
<feOffset dx="4" dy="4"/>
<feGaussianBlur stdDeviation="8"/>
<feColorMatrix type="matrix" values="0 0 0 0 0.00392157 0 0 0 0 0.109804 0 0 0 0 0.25098 0 0 0 0.2 0"/>
<feBlend mode="normal" in2="BackgroundImageFix" result="effect1_dropShadow"/>
<feBlend mode="normal" in="SourceGraphic" in2="effect1_dropShadow" result="shape"/>
</filter>
</defs>
</svg>



