<svg width="187" height="51" viewBox="0 0 187 51" fill="none" xmlns="http://www.w3.org/2000/svg">
<path d="M2.31484 4.60006H8.50684V5.68806H3.57884V9.06406H8.21884V10.1361H3.57884V13.5601H8.50684V14.6641H2.31484V4.60006ZM17.4592 14.6641H15.9232L13.7312 11.7681L11.6512 14.6641H10.1152L13.0112 10.8401L10.1152 7.00006H11.6512L13.8432 9.88006L15.9392 7.00006H17.4752L14.5472 10.8401L17.4592 14.6641ZM20.6867 8.18406C21.1881 7.2774 21.9347 6.82406 22.9267 6.82406C23.9294 6.82406 24.7614 7.19206 25.4227 7.92806C26.0947 8.66406 26.4307 9.63473 26.4307 10.8401C26.4307 12.0454 26.0947 13.0161 25.4227 13.7521C24.7507 14.4774 23.9241 14.8401 22.9427 14.8401C21.9614 14.8401 21.2361 14.4721 20.7667 13.7361V18.4241H19.5027V7.01606H20.5427L20.6867 8.18406ZM22.8787 13.7201C23.4761 13.7201 23.9987 13.4641 24.4467 12.9521C24.9054 12.4401 25.1347 11.7414 25.1347 10.8561C25.1347 9.96006 24.9161 9.25073 24.4787 8.72806C24.0521 8.2054 23.5294 7.94406 22.9107 7.94406C22.2921 7.94406 21.7854 8.1414 21.3907 8.53606C20.9961 8.92006 20.7881 9.44273 20.7667 10.1041V11.5601C20.7667 12.2321 20.9694 12.7601 21.3747 13.1441C21.7801 13.5281 22.2814 13.7201 22.8787 13.7201ZM31.6427 13.8161C32.6987 13.8161 33.3014 13.3521 33.4507 12.4241H34.7467C34.6294 13.1921 34.2881 13.7894 33.7227 14.2161C33.1681 14.6321 32.4747 14.8401 31.6427 14.8401C30.6187 14.8401 29.7867 14.4774 29.1467 13.7521C28.5067 13.0161 28.1867 12.0401 28.1867 10.8241C28.1867 9.60806 28.5067 8.6374 29.1467 7.91206C29.7974 7.18673 30.6561 6.82406 31.7227 6.82406C32.8001 6.82406 33.6001 7.24006 34.1227 8.07206C34.6561 8.90406 34.8427 9.9174 34.6827 11.1121H29.4507C29.4507 11.9014 29.6427 12.5521 30.0267 13.0641C30.4107 13.5654 30.9494 13.8161 31.6427 13.8161ZM32.5707 8.02406C32.3254 7.89606 32.0267 7.83206 31.6747 7.83206C31.0241 7.83206 30.5067 8.05606 30.1227 8.50406C29.7494 8.9414 29.5307 9.49073 29.4667 10.1521H33.5467C33.5467 9.0854 33.2214 8.37606 32.5707 8.02406ZM40.3571 8.08806C39.1518 8.08806 38.5278 9.0374 38.4851 10.9361V14.6641H37.2211V7.00006H38.4851V8.47206C38.8691 7.4054 39.5464 6.87206 40.5171 6.87206C40.8264 6.87206 41.1198 6.92006 41.3971 7.01606L41.3331 8.24806C41.0131 8.1414 40.6878 8.08806 40.3571 8.08806ZM43.4108 7.00006H44.6748V14.6641H43.4108V7.00006ZM44.0348 5.20806C43.7788 5.20806 43.5762 5.13873 43.4268 5.00006C43.2882 4.85073 43.2188 4.65873 43.2188 4.42406C43.2188 4.17873 43.2882 3.98673 43.4268 3.84806C43.5762 3.69873 43.7788 3.62406 44.0348 3.62406C44.2908 3.62406 44.4935 3.69873 44.6428 3.84806C44.8028 3.98673 44.8828 4.17873 44.8828 4.42406C44.8828 4.65873 44.8028 4.85073 44.6428 5.00006C44.4935 5.13873 44.2908 5.20806 44.0348 5.20806ZM50.7521 13.8161C51.8081 13.8161 52.4108 13.3521 52.5601 12.4241H53.8561C53.7388 13.1921 53.3974 13.7894 52.8321 14.2161C52.2774 14.6321 51.5841 14.8401 50.7521 14.8401C49.7281 14.8401 48.8961 14.4774 48.2561 13.7521C47.6161 13.0161 47.2961 12.0401 47.2961 10.8241C47.2961 9.60806 47.6161 8.6374 48.2561 7.91206C48.9068 7.18673 49.7654 6.82406 50.8321 6.82406C51.9094 6.82406 52.7094 7.24006 53.2321 8.07206C53.7654 8.90406 53.9521 9.9174 53.7921 11.1121H48.5601C48.5601 11.9014 48.7521 12.5521 49.1361 13.0641C49.5201 13.5654 50.0588 13.8161 50.7521 13.8161ZM51.6801 8.02406C51.4348 7.89606 51.1361 7.83206 50.7841 7.83206C50.1334 7.83206 49.6161 8.05606 49.2321 8.50406C48.8588 8.9414 48.6401 9.49073 48.5761 10.1521H52.6561C52.6561 9.0854 52.3308 8.37606 51.6801 8.02406ZM57.5625 8.48806C58.0638 7.37873 58.9225 6.82406 60.1385 6.82406C61.0451 6.82406 61.7491 7.12273 62.2505 7.72006C62.7625 8.3174 63.0185 9.1334 63.0185 10.1681V14.6641H61.7705V10.1681C61.7705 9.43206 61.5945 8.8774 61.2425 8.50406C60.9011 8.13073 60.4105 7.94406 59.7705 7.94406C59.1305 7.94406 58.6131 8.2054 58.2185 8.72806C57.8238 9.25073 57.6158 9.97606 57.5945 10.9041V14.6641H56.3305V7.01606H57.4185L57.5625 8.48806ZM68.5311 6.82406C69.4378 6.82406 70.1578 7.05873 70.6911 7.52806C71.2244 7.98673 71.5711 8.56273 71.7311 9.25606L70.4511 9.36806C70.3124 8.92006 70.0884 8.5734 69.7791 8.32806C69.4698 8.07206 69.1284 7.94406 68.7551 7.94406C68.0724 7.94406 67.5178 8.20006 67.0911 8.71206C66.6751 9.22406 66.4671 9.92273 66.4671 10.8081C66.4671 11.6827 66.6698 12.3867 67.0751 12.9201C67.4911 13.4534 68.0031 13.7201 68.6111 13.7201C69.2298 13.7201 69.6884 13.5814 69.9871 13.3041C70.2964 13.0161 70.4511 12.6107 70.4511 12.0881H71.7471C71.7471 12.9094 71.4591 13.5761 70.8831 14.0881C70.3178 14.5894 69.5764 14.8401 68.6591 14.8401C67.6884 14.8401 66.8618 14.4721 66.1791 13.7361C65.5071 13.0001 65.1711 12.0241 65.1711 10.8081C65.1711 9.5814 65.5071 8.61073 66.1791 7.89606C66.8511 7.1814 67.6351 6.82406 68.5311 6.82406ZM76.8615 13.8161C77.9175 13.8161 78.5201 13.3521 78.6695 12.4241H79.9655C79.8481 13.1921 79.5068 13.7894 78.9415 14.2161C78.3868 14.6321 77.6935 14.8401 76.8615 14.8401C75.8375 14.8401 75.0055 14.4774 74.3655 13.7521C73.7255 13.0161 73.4055 12.0401 73.4055 10.8241C73.4055 9.60806 73.7255 8.6374 74.3655 7.91206C75.0161 7.18673 75.8748 6.82406 76.9415 6.82406C78.0188 6.82406 78.8188 7.24006 79.3415 8.07206C79.8748 8.90406 80.0615 9.9174 79.9015 11.1121H74.6695C74.6695 11.9014 74.8615 12.5521 75.2455 13.0641C75.6295 13.5654 76.1681 13.8161 76.8615 13.8161ZM77.7895 8.02406C77.5441 7.89606 77.2455 7.83206 76.8935 7.83206C76.2428 7.83206 75.7255 8.05606 75.3415 8.50406C74.9681 8.9414 74.7495 9.49073 74.6855 10.1521H78.7655C78.7655 9.0854 78.4401 8.37606 77.7895 8.02406Z" fill="#FDFDFD"/>
<rect x="0.714844" y="36.3281" width="168.397" height="7.05474" rx="3.52737" fill="#F6F7F9"/>
<rect x="0.714844" y="36.3281" width="138.783" height="7.05474" rx="3.52737" fill="#F5DB13"/>
<path d="M1.38684 20.6812C2.18684 20.5639 2.89084 20.2812 3.49884 19.8332H4.92284V30.2812H3.03484V22.0892C2.49084 22.3559 1.94151 22.4892 1.38684 22.4892V20.6812ZM11.4896 19.6892C12.1296 19.6892 12.7109 19.8012 13.2336 20.0252C13.7669 20.2386 14.2203 20.5692 14.5936 21.0172C15.4043 21.9666 15.8096 23.3266 15.8096 25.0972C15.8096 26.8679 15.4043 28.2279 14.5936 29.1772C13.8469 30.0626 12.8176 30.5053 11.5056 30.5053C10.1829 30.5053 9.14293 30.0626 8.38559 29.1772C7.58559 28.2492 7.18559 26.8892 7.18559 25.0972C7.18559 23.3052 7.58559 21.9452 8.38559 21.0172C9.14293 20.1319 10.1776 19.6892 11.4896 19.6892ZM13.8576 25.0972C13.8576 23.9026 13.6496 22.9906 13.2336 22.3612C12.8283 21.7212 12.2469 21.4012 11.4896 21.4012C10.7429 21.4012 10.1616 21.7212 9.74559 22.3612C9.34026 22.9906 9.13759 23.9026 9.13759 25.0972C9.13759 26.2919 9.34026 27.2039 9.74559 27.8332C10.1616 28.4519 10.7429 28.7612 11.4896 28.7612C12.2469 28.7612 12.8283 28.4519 13.2336 27.8332C13.6496 27.2039 13.8576 26.2919 13.8576 25.0972ZM21.6146 19.6892C22.2546 19.6892 22.8359 19.8012 23.3586 20.0252C23.8919 20.2386 24.3453 20.5692 24.7186 21.0172C25.5293 21.9666 25.9346 23.3266 25.9346 25.0972C25.9346 26.8679 25.5293 28.2279 24.7186 29.1772C23.9719 30.0626 22.9426 30.5053 21.6306 30.5053C20.3079 30.5053 19.2679 30.0626 18.5106 29.1772C17.7106 28.2492 17.3106 26.8892 17.3106 25.0972C17.3106 23.3052 17.7106 21.9452 18.5106 21.0172C19.2679 20.1319 20.3026 19.6892 21.6146 19.6892ZM23.9826 25.0972C23.9826 23.9026 23.7746 22.9906 23.3586 22.3612C22.9533 21.7212 22.3719 21.4012 21.6146 21.4012C20.8679 21.4012 20.2866 21.7212 19.8706 22.3612C19.4653 22.9906 19.2626 23.9026 19.2626 25.0972C19.2626 26.2919 19.4653 27.2039 19.8706 27.8332C20.2866 28.4519 20.8679 28.7612 21.6146 28.7612C22.3719 28.7612 22.9533 28.4519 23.3586 27.8332C23.7746 27.2039 23.9826 26.2919 23.9826 25.0972ZM31.7396 19.6892C32.3796 19.6892 32.9609 19.8012 33.4836 20.0252C34.0169 20.2386 34.4703 20.5692 34.8436 21.0172C35.6543 21.9666 36.0596 23.3266 36.0596 25.0972C36.0596 26.8679 35.6543 28.2279 34.8436 29.1772C34.0969 30.0626 33.0676 30.5053 31.7556 30.5053C30.4329 30.5053 29.3929 30.0626 28.6356 29.1772C27.8356 28.2492 27.4356 26.8892 27.4356 25.0972C27.4356 23.3052 27.8356 21.9452 28.6356 21.0172C29.3929 20.1319 30.4276 19.6892 31.7396 19.6892ZM34.1076 25.0972C34.1076 23.9026 33.8996 22.9906 33.4836 22.3612C33.0783 21.7212 32.4969 21.4012 31.7396 21.4012C30.9929 21.4012 30.4116 21.7212 29.9956 22.3612C29.5903 22.9906 29.3876 23.9026 29.3876 25.0972C29.3876 26.2919 29.5903 27.2039 29.9956 27.8332C30.4116 28.4519 30.9929 28.7612 31.7396 28.7612C32.4969 28.7612 33.0783 28.4519 33.4836 27.8332C33.8996 27.2039 34.1076 26.2919 34.1076 25.0972ZM38.6646 30.3613C38.3659 30.3079 38.1099 30.1906 37.8966 30.0092C37.6939 29.8172 37.5926 29.5666 37.5926 29.2572C37.5926 28.9372 37.7153 28.6652 37.9606 28.4412C38.2059 28.2172 38.5419 28.1052 38.9686 28.1052C39.3953 28.1052 39.7419 28.2706 40.0086 28.6012C40.2753 28.9319 40.4086 29.3372 40.4086 29.8172C40.4086 30.5959 40.0566 31.3053 39.3526 31.9453C39.1286 32.1479 38.8779 32.3186 38.6006 32.4573L37.1926 31.7533C37.5446 31.5719 37.8539 31.3693 38.1206 31.1453C38.3979 30.9213 38.5793 30.6599 38.6646 30.3613ZM45.9115 19.6892C46.5515 19.6892 47.1328 19.8012 47.6555 20.0252C48.1888 20.2386 48.6421 20.5692 49.0155 21.0172C49.8261 21.9666 50.2315 23.3266 50.2315 25.0972C50.2315 26.8679 49.8261 28.2279 49.0155 29.1772C48.2688 30.0626 47.2395 30.5053 45.9275 30.5053C44.6048 30.5053 43.5648 30.0626 42.8075 29.1772C42.0075 28.2492 41.6075 26.8892 41.6075 25.0972C41.6075 23.3052 42.0075 21.9452 42.8075 21.0172C43.5648 20.1319 44.5995 19.6892 45.9115 19.6892ZM48.2795 25.0972C48.2795 23.9026 48.0715 22.9906 47.6555 22.3612C47.2501 21.7212 46.6688 21.4012 45.9115 21.4012C45.1648 21.4012 44.5835 21.7212 44.1675 22.3612C43.7621 22.9906 43.5595 23.9026 43.5595 25.0972C43.5595 26.2919 43.7621 27.2039 44.1675 27.8332C44.5835 28.4519 45.1648 28.7612 45.9115 28.7612C46.6688 28.7612 47.2501 28.4519 47.6555 27.8332C48.0715 27.2039 48.2795 26.2919 48.2795 25.0972ZM56.0365 19.6892C56.6765 19.6892 57.2578 19.8012 57.7805 20.0252C58.3138 20.2386 58.7671 20.5692 59.1405 21.0172C59.9511 21.9666 60.3565 23.3266 60.3565 25.0972C60.3565 26.8679 59.9511 28.2279 59.1405 29.1772C58.3938 30.0626 57.3645 30.5053 56.0525 30.5053C54.7298 30.5053 53.6898 30.0626 52.9325 29.1772C52.1325 28.2492 51.7325 26.8892 51.7325 25.0972C51.7325 23.3052 52.1325 21.9452 52.9325 21.0172C53.6898 20.1319 54.7245 19.6892 56.0365 19.6892ZM58.4045 25.0972C58.4045 23.9026 58.1965 22.9906 57.7805 22.3612C57.3751 21.7212 56.7938 21.4012 56.0365 21.4012C55.2898 21.4012 54.7085 21.7212 54.2925 22.3612C53.8871 22.9906 53.6845 23.9026 53.6845 25.0972C53.6845 26.2919 53.8871 27.2039 54.2925 27.8332C54.7085 28.4519 55.2898 28.7612 56.0365 28.7612C56.7938 28.7612 57.3751 28.4519 57.7805 27.8332C58.1965 27.2039 58.4045 26.2919 58.4045 25.0972ZM66.1615 19.6892C66.8015 19.6892 67.3828 19.8012 67.9055 20.0252C68.4388 20.2386 68.8921 20.5692 69.2655 21.0172C70.0761 21.9666 70.4815 23.3266 70.4815 25.0972C70.4815 26.8679 70.0761 28.2279 69.2655 29.1772C68.5188 30.0626 67.4895 30.5053 66.1775 30.5053C64.8548 30.5053 63.8148 30.0626 63.0575 29.1772C62.2575 28.2492 61.8575 26.8892 61.8575 25.0972C61.8575 23.3052 62.2575 21.9452 63.0575 21.0172C63.8148 20.1319 64.8495 19.6892 66.1615 19.6892ZM68.5295 25.0972C68.5295 23.9026 68.3215 22.9906 67.9055 22.3612C67.5001 21.7212 66.9188 21.4012 66.1615 21.4012C65.4148 21.4012 64.8335 21.7212 64.4175 22.3612C64.0121 22.9906 63.8095 23.9026 63.8095 25.0972C63.8095 26.2919 64.0121 27.2039 64.4175 27.8332C64.8335 28.4519 65.4148 28.7612 66.1615 28.7612C66.9188 28.7612 67.5001 28.4519 67.9055 27.8332C68.3215 27.2039 68.5295 26.2919 68.5295 25.0972Z" fill="#FDFDFD"/>
</svg>
