<svg width="187" height="51" viewBox="0 0 187 51" fill="none" xmlns="http://www.w3.org/2000/svg">
<path d="M4.33294 4.56881H5.86894L9.24494 14.6328H7.93294L7.06894 12.0728H3.06894L2.20494 14.6328H0.876938L4.33294 4.56881ZM3.40494 11.0808H6.74894L5.08494 6.12081L3.40494 11.0808ZM15.2801 14.4088C14.3627 14.8355 13.5254 14.9261 12.7681 14.6808C12.2241 14.5101 11.8401 14.1528 11.6161 13.6088C11.4987 13.3421 11.4401 13.0221 11.4401 12.6488V7.94481H10.2081V6.98481H11.4401V4.85681H12.6881V6.98481H15.0881V7.94481H12.6881V12.6328C12.6881 13.4115 13.0507 13.8008 13.7761 13.8008C14.1707 13.8008 14.6134 13.7048 15.1041 13.5128L15.2801 14.4088ZM21.2957 14.4088C20.3784 14.8355 19.541 14.9261 18.7837 14.6808C18.2397 14.5101 17.8557 14.1528 17.6317 13.6088C17.5144 13.3421 17.4557 13.0221 17.4557 12.6488V7.94481H16.2237V6.98481H17.4557V4.85681H18.7037V6.98481H21.1037V7.94481H18.7037V12.6328C18.7037 13.4115 19.0664 13.8008 19.7917 13.8008C20.1864 13.8008 20.629 13.7048 21.1197 13.5128L21.2957 14.4088ZM28.0473 9.67281C28.0473 8.97948 27.9033 8.48348 27.6153 8.18481C27.3273 7.88615 26.906 7.73681 26.3513 7.73681C25.8073 7.73681 25.3646 7.84881 25.0233 8.07281C24.6926 8.28615 24.5273 8.62748 24.5273 9.09681H23.1353C23.1353 7.92348 23.7646 7.19815 25.0233 6.92081C25.4073 6.83548 25.8233 6.79281 26.2713 6.79281C27.2206 6.79281 27.962 7.03281 28.4953 7.51281C29.0286 7.99281 29.2953 8.72348 29.2953 9.70481V14.6328H28.2073L28.0793 13.3528C27.61 14.3235 26.762 14.8088 25.5353 14.8088C24.714 14.8088 24.0526 14.5795 23.5513 14.1208C23.0606 13.6621 22.8153 13.0915 22.8153 12.4088C22.8153 11.7261 23.0873 11.1928 23.6313 10.8088C24.186 10.4248 24.874 10.2328 25.6953 10.2328C26.5166 10.2328 27.3006 10.3715 28.0473 10.6488V9.67281ZM28.0473 11.4488C27.29 11.2355 26.6286 11.1288 26.0633 11.1288C25.498 11.1288 25.0393 11.2301 24.6873 11.4328C24.3353 11.6355 24.1593 11.9555 24.1593 12.3928C24.1593 13.3528 24.7033 13.8328 25.7913 13.8328C26.41 13.8328 26.938 13.6141 27.3753 13.1768C27.8233 12.7288 28.0473 12.1528 28.0473 11.4488ZM34.8084 6.79281C35.7151 6.79281 36.4351 7.02748 36.9684 7.49681C37.5018 7.95548 37.8484 8.53148 38.0084 9.22481L36.7284 9.33681C36.5898 8.88881 36.3658 8.54215 36.0564 8.29681C35.7471 8.04081 35.4058 7.91281 35.0324 7.91281C34.3498 7.91281 33.7951 8.16881 33.3684 8.68081C32.9524 9.19281 32.7444 9.89148 32.7444 10.7768C32.7444 11.6515 32.9471 12.3555 33.3524 12.8888C33.7684 13.4221 34.2804 13.6888 34.8884 13.6888C35.5071 13.6888 35.9658 13.5501 36.2644 13.2728C36.5738 12.9848 36.7284 12.5795 36.7284 12.0568H38.0244C38.0244 12.8781 37.7364 13.5448 37.1604 14.0568C36.5951 14.5581 35.8538 14.8088 34.9364 14.8088C33.9658 14.8088 33.1391 14.4408 32.4564 13.7048C31.7844 12.9688 31.4484 11.9928 31.4484 10.7768C31.4484 9.55015 31.7844 8.57948 32.4564 7.86481C33.1284 7.15015 33.9124 6.79281 34.8084 6.79281ZM42.7868 10.5848L41.7628 11.4168V14.6328H40.4988V3.73681H41.7628V10.0728L45.4588 6.98481H47.2188L43.6988 9.84881L47.3948 14.6328H45.8428L42.7868 10.5848Z" fill="#FDFDFD"/>
<rect x="0.460938" y="36.2969" width="168.397" height="7.05474" rx="3.52737" fill="#F6F7F9"/>
<rect x="0.460938" y="36.2969" width="138.783" height="7.05474" rx="3.52737" fill="#F5DB13"/>
<path d="M1.13294 20.65C1.93294 20.5327 2.63694 20.25 3.24494 19.802H4.66894V30.25H2.78094V22.058C2.23694 22.3247 1.6876 22.458 1.13294 22.458V20.65ZM11.2357 19.658C11.8757 19.658 12.457 19.77 12.9797 19.994C13.513 20.2073 13.9664 20.538 14.3397 20.986C15.1504 21.9353 15.5557 23.2953 15.5557 25.066C15.5557 26.8367 15.1504 28.1967 14.3397 29.146C13.593 30.0313 12.5637 30.474 11.2517 30.474C9.92902 30.474 8.88902 30.0313 8.13169 29.146C7.33169 28.218 6.93169 26.858 6.93169 25.066C6.93169 23.274 7.33169 21.914 8.13169 20.986C8.88902 20.1007 9.92369 19.658 11.2357 19.658ZM13.6037 25.066C13.6037 23.8713 13.3957 22.9593 12.9797 22.33C12.5744 21.69 11.993 21.37 11.2357 21.37C10.489 21.37 9.90769 21.69 9.49169 22.33C9.08635 22.9593 8.88369 23.8713 8.88369 25.066C8.88369 26.2607 9.08635 27.1727 9.49169 27.802C9.90769 28.4207 10.489 28.73 11.2357 28.73C11.993 28.73 12.5744 28.4207 12.9797 27.802C13.3957 27.1727 13.6037 26.2607 13.6037 25.066ZM21.3607 19.658C22.0007 19.658 22.582 19.77 23.1047 19.994C23.638 20.2073 24.0914 20.538 24.4647 20.986C25.2754 21.9353 25.6807 23.2953 25.6807 25.066C25.6807 26.8367 25.2754 28.1967 24.4647 29.146C23.718 30.0313 22.6887 30.474 21.3767 30.474C20.054 30.474 19.014 30.0313 18.2567 29.146C17.4567 28.218 17.0567 26.858 17.0567 25.066C17.0567 23.274 17.4567 21.914 18.2567 20.986C19.014 20.1007 20.0487 19.658 21.3607 19.658ZM23.7287 25.066C23.7287 23.8713 23.5207 22.9593 23.1047 22.33C22.6994 21.69 22.118 21.37 21.3607 21.37C20.614 21.37 20.0327 21.69 19.6167 22.33C19.2114 22.9593 19.0087 23.8713 19.0087 25.066C19.0087 26.2607 19.2114 27.1727 19.6167 27.802C20.0327 28.4207 20.614 28.73 21.3607 28.73C22.118 28.73 22.6994 28.4207 23.1047 27.802C23.5207 27.1727 23.7287 26.2607 23.7287 25.066ZM31.4857 19.658C32.1257 19.658 32.707 19.77 33.2297 19.994C33.763 20.2073 34.2164 20.538 34.5897 20.986C35.4004 21.9353 35.8057 23.2953 35.8057 25.066C35.8057 26.8367 35.4004 28.1967 34.5897 29.146C33.843 30.0313 32.8137 30.474 31.5017 30.474C30.179 30.474 29.139 30.0313 28.3817 29.146C27.5817 28.218 27.1817 26.858 27.1817 25.066C27.1817 23.274 27.5817 21.914 28.3817 20.986C29.139 20.1007 30.1737 19.658 31.4857 19.658ZM33.8537 25.066C33.8537 23.8713 33.6457 22.9593 33.2297 22.33C32.8244 21.69 32.243 21.37 31.4857 21.37C30.739 21.37 30.1577 21.69 29.7417 22.33C29.3364 22.9593 29.1337 23.8713 29.1337 25.066C29.1337 26.2607 29.3364 27.1727 29.7417 27.802C30.1577 28.4207 30.739 28.73 31.4857 28.73C32.243 28.73 32.8244 28.4207 33.2297 27.802C33.6457 27.1727 33.8537 26.2607 33.8537 25.066ZM38.4107 30.33C38.112 30.2767 37.856 30.1593 37.6427 29.978C37.44 29.786 37.3387 29.5353 37.3387 29.226C37.3387 28.906 37.4614 28.634 37.7067 28.41C37.952 28.186 38.288 28.074 38.7147 28.074C39.1414 28.074 39.488 28.2393 39.7547 28.57C40.0214 28.9007 40.1547 29.306 40.1547 29.786C40.1547 30.5647 39.8027 31.274 39.0987 31.914C38.8747 32.1167 38.624 32.2873 38.3467 32.426L36.9387 31.722C37.2907 31.5407 37.6 31.338 37.8667 31.114C38.144 30.89 38.3254 30.6287 38.4107 30.33ZM45.6576 19.658C46.2976 19.658 46.8789 19.77 47.4016 19.994C47.9349 20.2073 48.3882 20.538 48.7616 20.986C49.5722 21.9353 49.9776 23.2953 49.9776 25.066C49.9776 26.8367 49.5722 28.1967 48.7616 29.146C48.0149 30.0313 46.9856 30.474 45.6736 30.474C44.3509 30.474 43.3109 30.0313 42.5536 29.146C41.7536 28.218 41.3536 26.858 41.3536 25.066C41.3536 23.274 41.7536 21.914 42.5536 20.986C43.3109 20.1007 44.3456 19.658 45.6576 19.658ZM48.0256 25.066C48.0256 23.8713 47.8176 22.9593 47.4016 22.33C46.9962 21.69 46.4149 21.37 45.6576 21.37C44.9109 21.37 44.3296 21.69 43.9136 22.33C43.5082 22.9593 43.3056 23.8713 43.3056 25.066C43.3056 26.2607 43.5082 27.1727 43.9136 27.802C44.3296 28.4207 44.9109 28.73 45.6576 28.73C46.4149 28.73 46.9962 28.4207 47.4016 27.802C47.8176 27.1727 48.0256 26.2607 48.0256 25.066ZM55.7826 19.658C56.4226 19.658 57.0039 19.77 57.5266 19.994C58.0599 20.2073 58.5132 20.538 58.8866 20.986C59.6972 21.9353 60.1026 23.2953 60.1026 25.066C60.1026 26.8367 59.6972 28.1967 58.8866 29.146C58.1399 30.0313 57.1106 30.474 55.7986 30.474C54.4759 30.474 53.4359 30.0313 52.6786 29.146C51.8786 28.218 51.4786 26.858 51.4786 25.066C51.4786 23.274 51.8786 21.914 52.6786 20.986C53.4359 20.1007 54.4706 19.658 55.7826 19.658ZM58.1506 25.066C58.1506 23.8713 57.9426 22.9593 57.5266 22.33C57.1212 21.69 56.5399 21.37 55.7826 21.37C55.0359 21.37 54.4546 21.69 54.0386 22.33C53.6332 22.9593 53.4306 23.8713 53.4306 25.066C53.4306 26.2607 53.6332 27.1727 54.0386 27.802C54.4546 28.4207 55.0359 28.73 55.7826 28.73C56.5399 28.73 57.1212 28.4207 57.5266 27.802C57.9426 27.1727 58.1506 26.2607 58.1506 25.066ZM65.9076 19.658C66.5476 19.658 67.1289 19.77 67.6516 19.994C68.1849 20.2073 68.6382 20.538 69.0116 20.986C69.8222 21.9353 70.2276 23.2953 70.2276 25.066C70.2276 26.8367 69.8222 28.1967 69.0116 29.146C68.2649 30.0313 67.2356 30.474 65.9236 30.474C64.6009 30.474 63.5609 30.0313 62.8036 29.146C62.0036 28.218 61.6036 26.858 61.6036 25.066C61.6036 23.274 62.0036 21.914 62.8036 20.986C63.5609 20.1007 64.5956 19.658 65.9076 19.658ZM68.2756 25.066C68.2756 23.8713 68.0676 22.9593 67.6516 22.33C67.2462 21.69 66.6649 21.37 65.9076 21.37C65.1609 21.37 64.5796 21.69 64.1636 22.33C63.7582 22.9593 63.5556 23.8713 63.5556 25.066C63.5556 26.2607 63.7582 27.1727 64.1636 27.802C64.5796 28.4207 65.1609 28.73 65.9076 28.73C66.6649 28.73 67.2462 28.4207 67.6516 27.802C68.0676 27.1727 68.2756 26.2607 68.2756 25.066Z" fill="#FDFDFD"/>
</svg>
