<svg width="187" height="51" viewBox="0 0 187 51" fill="none" xmlns="http://www.w3.org/2000/svg">
<path d="M5.27484 4.56881C6.78951 4.56881 8.00018 5.02748 8.90684 5.94481C9.82418 6.85148 10.2828 8.07281 10.2828 9.60881C10.2828 11.1341 9.82418 12.3555 8.90684 13.2728C8.00018 14.1795 6.78951 14.6328 5.27484 14.6328H2.31484V4.56881H5.27484ZM3.57884 13.5288H5.27484C6.39484 13.5288 7.28551 13.1608 7.94684 12.4248C8.60818 11.6781 8.93884 10.7341 8.93884 9.59281C8.93884 8.45148 8.60284 7.51815 7.93084 6.79281C7.26951 6.05681 6.38418 5.68881 5.27484 5.68881H3.57884V13.5288ZM15.549 13.7848C16.605 13.7848 17.2076 13.3208 17.357 12.3928H18.653C18.5356 13.1608 18.1943 13.7581 17.629 14.1848C17.0743 14.6008 16.381 14.8088 15.549 14.8088C14.525 14.8088 13.693 14.4461 13.053 13.7208C12.413 12.9848 12.093 12.0088 12.093 10.7928C12.093 9.57681 12.413 8.60615 13.053 7.88081C13.7036 7.15548 14.5623 6.79281 15.629 6.79281C16.7063 6.79281 17.5063 7.20881 18.029 8.04081C18.5623 8.87281 18.749 9.88615 18.589 11.0808H13.357C13.357 11.8701 13.549 12.5208 13.933 13.0328C14.317 13.5341 14.8556 13.7848 15.549 13.7848ZM16.477 7.99281C16.2316 7.86481 15.933 7.80081 15.581 7.80081C14.9303 7.80081 14.413 8.02481 14.029 8.47281C13.6556 8.91015 13.437 9.45948 13.373 10.1208H17.453C17.453 9.05415 17.1276 8.34481 16.477 7.99281ZM24.8553 4.80881C24.5033 4.67015 24.226 4.60081 24.0233 4.60081C23.65 4.60081 23.3567 4.69148 23.1433 4.87281C22.93 5.05415 22.8233 5.37415 22.8233 5.83281V6.98481H24.4073V7.84881H22.8233V14.6328H21.5753V7.84881H20.3113V6.98481H21.5753V5.81681C21.5753 5.05948 21.7833 4.50481 22.1993 4.15281C22.6153 3.79015 23.0953 3.60881 23.6393 3.60881C24.1833 3.60881 24.6633 3.67815 25.0793 3.81681L24.8553 4.80881ZM29.2677 13.7848C30.3237 13.7848 30.9264 13.3208 31.0757 12.3928H32.3717C32.2544 13.1608 31.9131 13.7581 31.3477 14.1848C30.7931 14.6008 30.0997 14.8088 29.2677 14.8088C28.2437 14.8088 27.4117 14.4461 26.7717 13.7208C26.1317 12.9848 25.8117 12.0088 25.8117 10.7928C25.8117 9.57681 26.1317 8.60615 26.7717 7.88081C27.4224 7.15548 28.2811 6.79281 29.3477 6.79281C30.4251 6.79281 31.2251 7.20881 31.7477 8.04081C32.2811 8.87281 32.4677 9.88615 32.3077 11.0808H27.0757C27.0757 11.8701 27.2677 12.5208 27.6517 13.0328C28.0357 13.5341 28.5744 13.7848 29.2677 13.7848ZM30.1957 7.99281C29.9504 7.86481 29.6517 7.80081 29.2997 7.80081C28.6491 7.80081 28.1317 8.02481 27.7477 8.47281C27.3744 8.91015 27.1557 9.45948 27.0917 10.1208H31.1717C31.1717 9.05415 30.8464 8.34481 30.1957 7.99281ZM36.0781 8.45681C36.5794 7.34748 37.4381 6.79281 38.6541 6.79281C39.5608 6.79281 40.2648 7.09148 40.7661 7.68881C41.2781 8.28615 41.5341 9.10215 41.5341 10.1368V14.6328H40.2861V10.1368C40.2861 9.40081 40.1101 8.84615 39.7581 8.47281C39.4168 8.09948 38.9261 7.91281 38.2861 7.91281C37.6461 7.91281 37.1288 8.17415 36.7341 8.69681C36.3394 9.21948 36.1314 9.94481 36.1101 10.8728V14.6328H34.8461V6.98481H35.9341L36.0781 8.45681ZM44.1027 8.85681C44.1027 8.22748 44.3694 7.72615 44.9027 7.35281C45.4467 6.97948 46.1774 6.79281 47.0947 6.79281C48.0121 6.79281 48.7267 6.98481 49.2387 7.36881C49.7614 7.75281 50.0334 8.23815 50.0547 8.82481H48.8227C48.7267 8.13148 48.1401 7.78481 47.0627 7.78481C46.5401 7.78481 46.1347 7.90215 45.8467 8.13681C45.5694 8.37148 45.4307 8.62748 45.4307 8.90481C45.4307 9.17148 45.5374 9.40081 45.7507 9.59281C45.9641 9.77415 46.3054 9.93415 46.7747 10.0728L48.3107 10.5848C48.9614 10.7875 49.4574 11.0488 49.7987 11.3688C50.1507 11.6781 50.3267 12.1101 50.3267 12.6648C50.3267 13.2088 50.0441 13.7048 49.4787 14.1528C48.9134 14.5901 48.1241 14.8088 47.1107 14.8088C46.0974 14.8088 45.3081 14.5848 44.7427 14.1368C44.1774 13.6781 43.8787 13.0915 43.8467 12.3768H45.0627C45.0841 12.8568 45.2761 13.2195 45.6387 13.4648C46.0121 13.6995 46.4761 13.8168 47.0307 13.8168C47.5854 13.8168 48.0441 13.6995 48.4067 13.4648C48.7694 13.2301 48.9507 12.9528 48.9507 12.6328C48.9507 12.3021 48.8441 12.0515 48.6307 11.8808C48.4174 11.7101 48.0707 11.5608 47.5907 11.4328L46.1027 10.9368C44.7694 10.5421 44.1027 9.84881 44.1027 8.85681ZM55.5646 13.7848C56.6206 13.7848 57.2233 13.3208 57.3726 12.3928H58.6686C58.5513 13.1608 58.2099 13.7581 57.6446 14.1848C57.0899 14.6008 56.3966 14.8088 55.5646 14.8088C54.5406 14.8088 53.7086 14.4461 53.0686 13.7208C52.4286 12.9848 52.1086 12.0088 52.1086 10.7928C52.1086 9.57681 52.4286 8.60615 53.0686 7.88081C53.7193 7.15548 54.5779 6.79281 55.6446 6.79281C56.7219 6.79281 57.5219 7.20881 58.0446 8.04081C58.5779 8.87281 58.7646 9.88615 58.6046 11.0808H53.3726C53.3726 11.8701 53.5646 12.5208 53.9486 13.0328C54.3326 13.5341 54.8713 13.7848 55.5646 13.7848ZM56.4926 7.99281C56.2473 7.86481 55.9486 7.80081 55.5966 7.80081C54.9459 7.80081 54.4286 8.02481 54.0446 8.47281C53.6713 8.91015 53.4526 9.45948 53.3886 10.1208H57.4686C57.4686 9.05415 57.1433 8.34481 56.4926 7.99281Z" fill="#FDFDFD"/>
<rect x="0.714844" y="36.2969" width="168.397" height="7.05474" rx="3.52737" fill="#F6F7F9"/>
<rect x="0.714844" y="36.2969" width="138.783" height="7.05474" rx="3.52737" fill="#F5DB13"/>
<path d="M1.38684 20.65C2.18684 20.5327 2.89084 20.25 3.49884 19.802H4.92284V30.25H3.03484V22.058C2.49084 22.3247 1.94151 22.458 1.38684 22.458V20.65ZM11.4896 19.658C12.1296 19.658 12.7109 19.77 13.2336 19.994C13.7669 20.2073 14.2203 20.538 14.5936 20.986C15.4043 21.9353 15.8096 23.2953 15.8096 25.066C15.8096 26.8367 15.4043 28.1967 14.5936 29.146C13.8469 30.0313 12.8176 30.474 11.5056 30.474C10.1829 30.474 9.14293 30.0313 8.38559 29.146C7.58559 28.218 7.18559 26.858 7.18559 25.066C7.18559 23.274 7.58559 21.914 8.38559 20.986C9.14293 20.1007 10.1776 19.658 11.4896 19.658ZM13.8576 25.066C13.8576 23.8713 13.6496 22.9593 13.2336 22.33C12.8283 21.69 12.2469 21.37 11.4896 21.37C10.7429 21.37 10.1616 21.69 9.74559 22.33C9.34026 22.9593 9.13759 23.8713 9.13759 25.066C9.13759 26.2607 9.34026 27.1727 9.74559 27.802C10.1616 28.4207 10.7429 28.73 11.4896 28.73C12.2469 28.73 12.8283 28.4207 13.2336 27.802C13.6496 27.1727 13.8576 26.2607 13.8576 25.066ZM21.6146 19.658C22.2546 19.658 22.8359 19.77 23.3586 19.994C23.8919 20.2073 24.3453 20.538 24.7186 20.986C25.5293 21.9353 25.9346 23.2953 25.9346 25.066C25.9346 26.8367 25.5293 28.1967 24.7186 29.146C23.9719 30.0313 22.9426 30.474 21.6306 30.474C20.3079 30.474 19.2679 30.0313 18.5106 29.146C17.7106 28.218 17.3106 26.858 17.3106 25.066C17.3106 23.274 17.7106 21.914 18.5106 20.986C19.2679 20.1007 20.3026 19.658 21.6146 19.658ZM23.9826 25.066C23.9826 23.8713 23.7746 22.9593 23.3586 22.33C22.9533 21.69 22.3719 21.37 21.6146 21.37C20.8679 21.37 20.2866 21.69 19.8706 22.33C19.4653 22.9593 19.2626 23.8713 19.2626 25.066C19.2626 26.2607 19.4653 27.1727 19.8706 27.802C20.2866 28.4207 20.8679 28.73 21.6146 28.73C22.3719 28.73 22.9533 28.4207 23.3586 27.802C23.7746 27.1727 23.9826 26.2607 23.9826 25.066ZM31.7396 19.658C32.3796 19.658 32.9609 19.77 33.4836 19.994C34.0169 20.2073 34.4703 20.538 34.8436 20.986C35.6543 21.9353 36.0596 23.2953 36.0596 25.066C36.0596 26.8367 35.6543 28.1967 34.8436 29.146C34.0969 30.0313 33.0676 30.474 31.7556 30.474C30.4329 30.474 29.3929 30.0313 28.6356 29.146C27.8356 28.218 27.4356 26.858 27.4356 25.066C27.4356 23.274 27.8356 21.914 28.6356 20.986C29.3929 20.1007 30.4276 19.658 31.7396 19.658ZM34.1076 25.066C34.1076 23.8713 33.8996 22.9593 33.4836 22.33C33.0783 21.69 32.4969 21.37 31.7396 21.37C30.9929 21.37 30.4116 21.69 29.9956 22.33C29.5903 22.9593 29.3876 23.8713 29.3876 25.066C29.3876 26.2607 29.5903 27.1727 29.9956 27.802C30.4116 28.4207 30.9929 28.73 31.7396 28.73C32.4969 28.73 33.0783 28.4207 33.4836 27.802C33.8996 27.1727 34.1076 26.2607 34.1076 25.066ZM38.6646 30.33C38.3659 30.2767 38.1099 30.1593 37.8966 29.978C37.6939 29.786 37.5926 29.5353 37.5926 29.226C37.5926 28.906 37.7153 28.634 37.9606 28.41C38.2059 28.186 38.5419 28.074 38.9686 28.074C39.3953 28.074 39.7419 28.2393 40.0086 28.57C40.2753 28.9007 40.4086 29.306 40.4086 29.786C40.4086 30.5647 40.0566 31.274 39.3526 31.914C39.1286 32.1167 38.8779 32.2873 38.6006 32.426L37.1926 31.722C37.5446 31.5407 37.8539 31.338 38.1206 31.114C38.3979 30.89 38.5793 30.6287 38.6646 30.33ZM45.9115 19.658C46.5515 19.658 47.1328 19.77 47.6555 19.994C48.1888 20.2073 48.6421 20.538 49.0155 20.986C49.8261 21.9353 50.2315 23.2953 50.2315 25.066C50.2315 26.8367 49.8261 28.1967 49.0155 29.146C48.2688 30.0313 47.2395 30.474 45.9275 30.474C44.6048 30.474 43.5648 30.0313 42.8075 29.146C42.0075 28.218 41.6075 26.858 41.6075 25.066C41.6075 23.274 42.0075 21.914 42.8075 20.986C43.5648 20.1007 44.5995 19.658 45.9115 19.658ZM48.2795 25.066C48.2795 23.8713 48.0715 22.9593 47.6555 22.33C47.2501 21.69 46.6688 21.37 45.9115 21.37C45.1648 21.37 44.5835 21.69 44.1675 22.33C43.7621 22.9593 43.5595 23.8713 43.5595 25.066C43.5595 26.2607 43.7621 27.1727 44.1675 27.802C44.5835 28.4207 45.1648 28.73 45.9115 28.73C46.6688 28.73 47.2501 28.4207 47.6555 27.802C48.0715 27.1727 48.2795 26.2607 48.2795 25.066ZM56.0365 19.658C56.6765 19.658 57.2578 19.77 57.7805 19.994C58.3138 20.2073 58.7671 20.538 59.1405 20.986C59.9511 21.9353 60.3565 23.2953 60.3565 25.066C60.3565 26.8367 59.9511 28.1967 59.1405 29.146C58.3938 30.0313 57.3645 30.474 56.0525 30.474C54.7298 30.474 53.6898 30.0313 52.9325 29.146C52.1325 28.218 51.7325 26.858 51.7325 25.066C51.7325 23.274 52.1325 21.914 52.9325 20.986C53.6898 20.1007 54.7245 19.658 56.0365 19.658ZM58.4045 25.066C58.4045 23.8713 58.1965 22.9593 57.7805 22.33C57.3751 21.69 56.7938 21.37 56.0365 21.37C55.2898 21.37 54.7085 21.69 54.2925 22.33C53.8871 22.9593 53.6845 23.8713 53.6845 25.066C53.6845 26.2607 53.8871 27.1727 54.2925 27.802C54.7085 28.4207 55.2898 28.73 56.0365 28.73C56.7938 28.73 57.3751 28.4207 57.7805 27.802C58.1965 27.1727 58.4045 26.2607 58.4045 25.066ZM66.1615 19.658C66.8015 19.658 67.3828 19.77 67.9055 19.994C68.4388 20.2073 68.8921 20.538 69.2655 20.986C70.0761 21.9353 70.4815 23.2953 70.4815 25.066C70.4815 26.8367 70.0761 28.1967 69.2655 29.146C68.5188 30.0313 67.4895 30.474 66.1775 30.474C64.8548 30.474 63.8148 30.0313 63.0575 29.146C62.2575 28.218 61.8575 26.858 61.8575 25.066C61.8575 23.274 62.2575 21.914 63.0575 20.986C63.8148 20.1007 64.8495 19.658 66.1615 19.658ZM68.5295 25.066C68.5295 23.8713 68.3215 22.9593 67.9055 22.33C67.5001 21.69 66.9188 21.37 66.1615 21.37C65.4148 21.37 64.8335 21.69 64.4175 22.33C64.0121 22.9593 63.8095 23.8713 63.8095 25.066C63.8095 26.2607 64.0121 27.1727 64.4175 27.802C64.8335 28.4207 65.4148 28.73 66.1615 28.73C66.9188 28.73 67.5001 28.4207 67.9055 27.802C68.3215 27.1727 68.5295 26.2607 68.5295 25.066Z" fill="#FDFDFD"/>
</svg>
