<svg width="187" height="51" viewBox="0 0 187 51" fill="none" xmlns="http://www.w3.org/2000/svg">
<path d="M7.43694 7.17306C7.2556 6.19173 6.5356 5.70106 5.27694 5.70106C4.60494 5.70106 4.0876 5.8504 3.72494 6.14906C3.36227 6.43706 3.18094 6.78906 3.18094 7.20506C3.18094 7.6104 3.29294 7.91973 3.51694 8.13306C3.74094 8.3464 4.1036 8.53306 4.60494 8.69306L6.70094 9.41306C7.4156 9.6584 7.98094 9.9944 8.39694 10.4211C8.8236 10.8477 9.03694 11.4504 9.03694 12.2291C9.03694 12.9971 8.70627 13.6477 8.04494 14.1811C7.3836 14.7037 6.49827 14.9651 5.38894 14.9651C4.2796 14.9651 3.3676 14.6877 2.65294 14.1331C1.94894 13.5677 1.58627 12.7784 1.56494 11.7651H2.79694C2.79694 12.4264 3.02627 12.9331 3.48494 13.2851C3.95427 13.6371 4.5516 13.8131 5.27694 13.8131C6.01294 13.8131 6.59427 13.6531 7.02094 13.3331C7.4476 13.0024 7.66094 12.6184 7.66094 12.1811C7.66094 11.7331 7.5276 11.3811 7.26094 11.1251C7.00494 10.8691 6.62094 10.6557 6.10894 10.4851L4.33294 9.82906C3.50094 9.55173 2.8716 9.22106 2.44494 8.83706C2.01827 8.45306 1.80494 7.89306 1.80494 7.15706C1.80494 6.4104 2.1036 5.79173 2.70094 5.30106C3.29827 4.79973 4.1356 4.54906 5.21294 4.54906C6.29027 4.54906 7.1116 4.78906 7.67694 5.26906C8.25294 5.7384 8.5836 6.37306 8.66894 7.17306H7.43694ZM12.9484 8.30906C13.4498 7.4024 14.1964 6.94906 15.1884 6.94906C16.1911 6.94906 17.0231 7.31706 17.6844 8.05306C18.3564 8.78906 18.6924 9.75973 18.6924 10.9651C18.6924 12.1704 18.3564 13.1411 17.6844 13.8771C17.0124 14.6024 16.1858 14.9651 15.2044 14.9651C14.2231 14.9651 13.4978 14.5971 13.0284 13.8611V18.5491H11.7644V7.14106H12.8044L12.9484 8.30906ZM15.1404 13.8451C15.7378 13.8451 16.2604 13.5891 16.7084 13.0771C17.1671 12.5651 17.3964 11.8664 17.3964 10.9811C17.3964 10.0851 17.1778 9.37573 16.7404 8.85306C16.3138 8.3304 15.7911 8.06906 15.1724 8.06906C14.5538 8.06906 14.0471 8.2664 13.6524 8.66106C13.2578 9.04506 13.0498 9.56773 13.0284 10.2291V11.6851C13.0284 12.3571 13.2311 12.8851 13.6364 13.2691C14.0418 13.6531 14.5431 13.8451 15.1404 13.8451ZM23.9044 13.9411C24.9604 13.9411 25.5631 13.4771 25.7124 12.5491H27.0084C26.8911 13.3171 26.5498 13.9144 25.9844 14.3411C25.4298 14.7571 24.7364 14.9651 23.9044 14.9651C22.8804 14.9651 22.0484 14.6024 21.4084 13.8771C20.7684 13.1411 20.4484 12.1651 20.4484 10.9491C20.4484 9.73306 20.7684 8.7624 21.4084 8.03706C22.0591 7.31173 22.9178 6.94906 23.9844 6.94906C25.0618 6.94906 25.8618 7.36506 26.3844 8.19706C26.9178 9.02906 27.1044 10.0424 26.9444 11.2371H21.7124C21.7124 12.0264 21.9044 12.6771 22.2884 13.1891C22.6724 13.6904 23.2111 13.9411 23.9044 13.9411ZM24.8324 8.14906C24.5871 8.02106 24.2884 7.95706 23.9364 7.95706C23.2858 7.95706 22.7684 8.18106 22.3844 8.62906C22.0111 9.0664 21.7924 9.61573 21.7284 10.2771H25.8084C25.8084 9.2104 25.4831 8.50106 24.8324 8.14906ZM32.0428 6.94906C32.9495 6.94906 33.6695 7.18373 34.2028 7.65306C34.7361 8.11173 35.0828 8.68773 35.2428 9.38106L33.9628 9.49306C33.8241 9.04506 33.6001 8.6984 33.2908 8.45306C32.9815 8.19706 32.6401 8.06906 32.2668 8.06906C31.5841 8.06906 31.0295 8.32506 30.6028 8.83706C30.1868 9.34906 29.9788 10.0477 29.9788 10.9331C29.9788 11.8077 30.1815 12.5117 30.5868 13.0451C31.0028 13.5784 31.5148 13.8451 32.1228 13.8451C32.7415 13.8451 33.2001 13.7064 33.4988 13.4291C33.8081 13.1411 33.9628 12.7357 33.9628 12.2131H35.2588C35.2588 13.0344 34.9708 13.7011 34.3948 14.2131C33.8295 14.7144 33.0881 14.9651 32.1708 14.9651C31.2001 14.9651 30.3735 14.5971 29.6908 13.8611C29.0188 13.1251 28.6828 12.1491 28.6828 10.9331C28.6828 9.7064 29.0188 8.73573 29.6908 8.02106C30.3628 7.3064 31.1468 6.94906 32.0428 6.94906ZM37.8132 7.12506H39.0772V14.7891H37.8132V7.12506ZM38.4372 5.33306C38.1812 5.33306 37.9785 5.26373 37.8292 5.12506C37.6905 4.97573 37.6212 4.78373 37.6212 4.54906C37.6212 4.30373 37.6905 4.11173 37.8292 3.97306C37.9785 3.82373 38.1812 3.74906 38.4372 3.74906C38.6932 3.74906 38.8959 3.82373 39.0452 3.97306C39.2052 4.11173 39.2852 4.30373 39.2852 4.54906C39.2852 4.78373 39.2052 4.97573 39.0452 5.12506C38.8959 5.26373 38.6932 5.33306 38.4372 5.33306ZM47.2504 9.82906C47.2504 9.13573 47.1064 8.63973 46.8184 8.34106C46.5304 8.0424 46.1091 7.89306 45.5544 7.89306C45.0104 7.89306 44.5678 8.00506 44.2264 8.22906C43.8958 8.4424 43.7304 8.78373 43.7304 9.25306H42.3384C42.3384 8.07973 42.9678 7.3544 44.2264 7.07706C44.6104 6.99173 45.0264 6.94906 45.4744 6.94906C46.4238 6.94906 47.1651 7.18906 47.6984 7.66906C48.2318 8.14906 48.4984 8.87973 48.4984 9.86106V14.7891H47.4104L47.2824 13.5091C46.8131 14.4797 45.9651 14.9651 44.7384 14.9651C43.9171 14.9651 43.2558 14.7357 42.7544 14.2771C42.2638 13.8184 42.0184 13.2477 42.0184 12.5651C42.0184 11.8824 42.2904 11.3491 42.8344 10.9651C43.3891 10.5811 44.0771 10.3891 44.8984 10.3891C45.7198 10.3891 46.5038 10.5277 47.2504 10.8051V9.82906ZM47.2504 11.6051C46.4931 11.3917 45.8318 11.2851 45.2664 11.2851C44.7011 11.2851 44.2424 11.3864 43.8904 11.5891C43.5384 11.7917 43.3624 12.1117 43.3624 12.5491C43.3624 13.5091 43.9064 13.9891 44.9944 13.9891C45.6131 13.9891 46.1411 13.7704 46.5784 13.3331C47.0264 12.8851 47.2504 12.3091 47.2504 11.6051ZM51.4676 3.89306H52.7316V14.7891H51.4676V3.89306ZM62.0204 4.72506H63.5564L66.9324 14.7891H65.6204L64.7564 12.2291H60.7564L59.8924 14.7891H58.5644L62.0204 4.72506ZM61.0924 11.2371H64.4364L62.7724 6.27706L61.0924 11.2371ZM72.9676 14.5651C72.0502 14.9917 71.2129 15.0824 70.4556 14.8371C69.9116 14.6664 69.5276 14.3091 69.3036 13.7651C69.1862 13.4984 69.1276 13.1784 69.1276 12.8051V8.10106H67.8956V7.14106H69.1276V5.01306H70.3756V7.14106H72.7756V8.10106H70.3756V12.7891C70.3756 13.5677 70.7382 13.9571 71.4636 13.9571C71.8582 13.9571 72.3009 13.8611 72.7916 13.6691L72.9676 14.5651ZM78.9832 14.5651C78.0659 14.9917 77.2285 15.0824 76.4712 14.8371C75.9272 14.6664 75.5432 14.3091 75.3192 13.7651C75.2019 13.4984 75.1432 13.1784 75.1432 12.8051V8.10106H73.9112V7.14106H75.1432V5.01306H76.3912V7.14106H78.7912V8.10106H76.3912V12.7891C76.3912 13.5677 76.7539 13.9571 77.4792 13.9571C77.8739 13.9571 78.3165 13.8611 78.8072 13.6691L78.9832 14.5651ZM85.7348 9.82906C85.7348 9.13573 85.5908 8.63973 85.3028 8.34106C85.0148 8.0424 84.5935 7.89306 84.0388 7.89306C83.4948 7.89306 83.0521 8.00506 82.7108 8.22906C82.3801 8.4424 82.2148 8.78373 82.2148 9.25306H80.8228C80.8228 8.07973 81.4521 7.3544 82.7108 7.07706C83.0948 6.99173 83.5108 6.94906 83.9588 6.94906C84.9081 6.94906 85.6495 7.18906 86.1828 7.66906C86.7161 8.14906 86.9828 8.87973 86.9828 9.86106V14.7891H85.8948L85.7668 13.5091C85.2975 14.4797 84.4495 14.9651 83.2228 14.9651C82.4015 14.9651 81.7401 14.7357 81.2388 14.2771C80.7481 13.8184 80.5028 13.2477 80.5028 12.5651C80.5028 11.8824 80.7748 11.3491 81.3188 10.9651C81.8735 10.5811 82.5615 10.3891 83.3828 10.3891C84.2041 10.3891 84.9881 10.5277 85.7348 10.8051V9.82906ZM85.7348 11.6051C84.9775 11.3917 84.3161 11.2851 83.7508 11.2851C83.1855 11.2851 82.7268 11.3864 82.3748 11.5891C82.0228 11.7917 81.8468 12.1117 81.8468 12.5491C81.8468 13.5091 82.3908 13.9891 83.4788 13.9891C84.0975 13.9891 84.6255 13.7704 85.0628 13.3331C85.5108 12.8851 85.7348 12.3091 85.7348 11.6051ZM92.4959 6.94906C93.4026 6.94906 94.1226 7.18373 94.6559 7.65306C95.1893 8.11173 95.5359 8.68773 95.6959 9.38106L94.4159 9.49306C94.2773 9.04506 94.0533 8.6984 93.7439 8.45306C93.4346 8.19706 93.0933 8.06906 92.7199 8.06906C92.0373 8.06906 91.4826 8.32506 91.0559 8.83706C90.6399 9.34906 90.4319 10.0477 90.4319 10.9331C90.4319 11.8077 90.6346 12.5117 91.0399 13.0451C91.4559 13.5784 91.9679 13.8451 92.5759 13.8451C93.1946 13.8451 93.6533 13.7064 93.9519 13.4291C94.2613 13.1411 94.4159 12.7357 94.4159 12.2131H95.7119C95.7119 13.0344 95.4239 13.7011 94.8479 14.2131C94.2826 14.7144 93.5413 14.9651 92.6239 14.9651C91.6533 14.9651 90.8266 14.5971 90.1439 13.8611C89.4719 13.1251 89.1359 12.1491 89.1359 10.9331C89.1359 9.7064 89.4719 8.73573 90.1439 8.02106C90.8159 7.3064 91.5999 6.94906 92.4959 6.94906ZM100.474 10.7411L99.4503 11.5731V14.7891H98.1863V3.89306H99.4503V10.2291L103.146 7.14106H104.906L101.386 10.0051L105.082 14.7891H103.53L100.474 10.7411Z" fill="#FDFDFD"/>
<rect x="0.460938" y="36.4531" width="168.397" height="7.05474" rx="3.52737" fill="#F6F7F9"/>
<rect x="0.460938" y="36.4531" width="138.783" height="7.05474" rx="3.52737" fill="#F5DB13"/>
<path d="M1.13294 20.8062C1.93294 20.6889 2.63694 20.4062 3.24494 19.9582H4.66894V30.4062H2.78094V22.2142C2.23694 22.4809 1.6876 22.6142 1.13294 22.6142V20.8062ZM11.2357 19.8142C11.8757 19.8142 12.457 19.9262 12.9797 20.1502C13.513 20.3636 13.9664 20.6942 14.3397 21.1422C15.1504 22.0916 15.5557 23.4516 15.5557 25.2222C15.5557 26.9929 15.1504 28.3529 14.3397 29.3022C13.593 30.1876 12.5637 30.6303 11.2517 30.6303C9.92902 30.6303 8.88902 30.1876 8.13169 29.3022C7.33169 28.3742 6.93169 27.0142 6.93169 25.2222C6.93169 23.4302 7.33169 22.0702 8.13169 21.1422C8.88902 20.2569 9.92369 19.8142 11.2357 19.8142ZM13.6037 25.2222C13.6037 24.0276 13.3957 23.1156 12.9797 22.4862C12.5744 21.8462 11.993 21.5262 11.2357 21.5262C10.489 21.5262 9.90769 21.8462 9.49169 22.4862C9.08635 23.1156 8.88369 24.0276 8.88369 25.2222C8.88369 26.4169 9.08635 27.3289 9.49169 27.9582C9.90769 28.5769 10.489 28.8862 11.2357 28.8862C11.993 28.8862 12.5744 28.5769 12.9797 27.9582C13.3957 27.3289 13.6037 26.4169 13.6037 25.2222ZM21.3607 19.8142C22.0007 19.8142 22.582 19.9262 23.1047 20.1502C23.638 20.3636 24.0914 20.6942 24.4647 21.1422C25.2754 22.0916 25.6807 23.4516 25.6807 25.2222C25.6807 26.9929 25.2754 28.3529 24.4647 29.3022C23.718 30.1876 22.6887 30.6303 21.3767 30.6303C20.054 30.6303 19.014 30.1876 18.2567 29.3022C17.4567 28.3742 17.0567 27.0142 17.0567 25.2222C17.0567 23.4302 17.4567 22.0702 18.2567 21.1422C19.014 20.2569 20.0487 19.8142 21.3607 19.8142ZM23.7287 25.2222C23.7287 24.0276 23.5207 23.1156 23.1047 22.4862C22.6994 21.8462 22.118 21.5262 21.3607 21.5262C20.614 21.5262 20.0327 21.8462 19.6167 22.4862C19.2114 23.1156 19.0087 24.0276 19.0087 25.2222C19.0087 26.4169 19.2114 27.3289 19.6167 27.9582C20.0327 28.5769 20.614 28.8862 21.3607 28.8862C22.118 28.8862 22.6994 28.5769 23.1047 27.9582C23.5207 27.3289 23.7287 26.4169 23.7287 25.2222ZM31.4857 19.8142C32.1257 19.8142 32.707 19.9262 33.2297 20.1502C33.763 20.3636 34.2164 20.6942 34.5897 21.1422C35.4004 22.0916 35.8057 23.4516 35.8057 25.2222C35.8057 26.9929 35.4004 28.3529 34.5897 29.3022C33.843 30.1876 32.8137 30.6303 31.5017 30.6303C30.179 30.6303 29.139 30.1876 28.3817 29.3022C27.5817 28.3742 27.1817 27.0142 27.1817 25.2222C27.1817 23.4302 27.5817 22.0702 28.3817 21.1422C29.139 20.2569 30.1737 19.8142 31.4857 19.8142ZM33.8537 25.2222C33.8537 24.0276 33.6457 23.1156 33.2297 22.4862C32.8244 21.8462 32.243 21.5262 31.4857 21.5262C30.739 21.5262 30.1577 21.8462 29.7417 22.4862C29.3364 23.1156 29.1337 24.0276 29.1337 25.2222C29.1337 26.4169 29.3364 27.3289 29.7417 27.9582C30.1577 28.5769 30.739 28.8862 31.4857 28.8862C32.243 28.8862 32.8244 28.5769 33.2297 27.9582C33.6457 27.3289 33.8537 26.4169 33.8537 25.2222ZM38.4107 30.4863C38.112 30.4329 37.856 30.3156 37.6427 30.1342C37.44 29.9422 37.3387 29.6916 37.3387 29.3822C37.3387 29.0622 37.4614 28.7902 37.7067 28.5662C37.952 28.3422 38.288 28.2302 38.7147 28.2302C39.1414 28.2302 39.488 28.3956 39.7547 28.7262C40.0214 29.0569 40.1547 29.4622 40.1547 29.9422C40.1547 30.7209 39.8027 31.4303 39.0987 32.0703C38.8747 32.2729 38.624 32.4436 38.3467 32.5823L36.9387 31.8783C37.2907 31.6969 37.6 31.4943 37.8667 31.2703C38.144 31.0463 38.3254 30.7849 38.4107 30.4863ZM45.6576 19.8142C46.2976 19.8142 46.8789 19.9262 47.4016 20.1502C47.9349 20.3636 48.3882 20.6942 48.7616 21.1422C49.5722 22.0916 49.9776 23.4516 49.9776 25.2222C49.9776 26.9929 49.5722 28.3529 48.7616 29.3022C48.0149 30.1876 46.9856 30.6303 45.6736 30.6303C44.3509 30.6303 43.3109 30.1876 42.5536 29.3022C41.7536 28.3742 41.3536 27.0142 41.3536 25.2222C41.3536 23.4302 41.7536 22.0702 42.5536 21.1422C43.3109 20.2569 44.3456 19.8142 45.6576 19.8142ZM48.0256 25.2222C48.0256 24.0276 47.8176 23.1156 47.4016 22.4862C46.9962 21.8462 46.4149 21.5262 45.6576 21.5262C44.9109 21.5262 44.3296 21.8462 43.9136 22.4862C43.5082 23.1156 43.3056 24.0276 43.3056 25.2222C43.3056 26.4169 43.5082 27.3289 43.9136 27.9582C44.3296 28.5769 44.9109 28.8862 45.6576 28.8862C46.4149 28.8862 46.9962 28.5769 47.4016 27.9582C47.8176 27.3289 48.0256 26.4169 48.0256 25.2222ZM55.7826 19.8142C56.4226 19.8142 57.0039 19.9262 57.5266 20.1502C58.0599 20.3636 58.5132 20.6942 58.8866 21.1422C59.6972 22.0916 60.1026 23.4516 60.1026 25.2222C60.1026 26.9929 59.6972 28.3529 58.8866 29.3022C58.1399 30.1876 57.1106 30.6303 55.7986 30.6303C54.4759 30.6303 53.4359 30.1876 52.6786 29.3022C51.8786 28.3742 51.4786 27.0142 51.4786 25.2222C51.4786 23.4302 51.8786 22.0702 52.6786 21.1422C53.4359 20.2569 54.4706 19.8142 55.7826 19.8142ZM58.1506 25.2222C58.1506 24.0276 57.9426 23.1156 57.5266 22.4862C57.1212 21.8462 56.5399 21.5262 55.7826 21.5262C55.0359 21.5262 54.4546 21.8462 54.0386 22.4862C53.6332 23.1156 53.4306 24.0276 53.4306 25.2222C53.4306 26.4169 53.6332 27.3289 54.0386 27.9582C54.4546 28.5769 55.0359 28.8862 55.7826 28.8862C56.5399 28.8862 57.1212 28.5769 57.5266 27.9582C57.9426 27.3289 58.1506 26.4169 58.1506 25.2222ZM65.9076 19.8142C66.5476 19.8142 67.1289 19.9262 67.6516 20.1502C68.1849 20.3636 68.6382 20.6942 69.0116 21.1422C69.8222 22.0916 70.2276 23.4516 70.2276 25.2222C70.2276 26.9929 69.8222 28.3529 69.0116 29.3022C68.2649 30.1876 67.2356 30.6303 65.9236 30.6303C64.6009 30.6303 63.5609 30.1876 62.8036 29.3022C62.0036 28.3742 61.6036 27.0142 61.6036 25.2222C61.6036 23.4302 62.0036 22.0702 62.8036 21.1422C63.5609 20.2569 64.5956 19.8142 65.9076 19.8142ZM68.2756 25.2222C68.2756 24.0276 68.0676 23.1156 67.6516 22.4862C67.2462 21.8462 66.6649 21.5262 65.9076 21.5262C65.1609 21.5262 64.5796 21.8462 64.1636 22.4862C63.7582 23.1156 63.5556 24.0276 63.5556 25.2222C63.5556 26.4169 63.7582 27.3289 64.1636 27.9582C64.5796 28.5769 65.1609 28.8862 65.9076 28.8862C66.6649 28.8862 67.2462 28.5769 67.6516 27.9582C68.0676 27.3289 68.2756 26.4169 68.2756 25.2222Z" fill="#FDFDFD"/>
</svg>
