<svg width="187" height="51" viewBox="0 0 187 51" fill="none" xmlns="http://www.w3.org/2000/svg">
<path d="M7.69084 7.17306C7.50951 6.19173 6.78951 5.70106 5.53084 5.70106C4.85884 5.70106 4.34151 5.8504 3.97884 6.14906C3.61618 6.43706 3.43484 6.78906 3.43484 7.20506C3.43484 7.6104 3.54684 7.91973 3.77084 8.13306C3.99484 8.3464 4.35751 8.53306 4.85884 8.69306L6.95484 9.41306C7.66951 9.6584 8.23484 9.9944 8.65084 10.4211C9.07751 10.8477 9.29084 11.4504 9.29084 12.2291C9.29084 12.9971 8.96018 13.6477 8.29884 14.1811C7.63751 14.7037 6.75218 14.9651 5.64284 14.9651C4.53351 14.9651 3.62151 14.6877 2.90684 14.1331C2.20284 13.5677 1.84018 12.7784 1.81884 11.7651H3.05084C3.05084 12.4264 3.28018 12.9331 3.73884 13.2851C4.20818 13.6371 4.80551 13.8131 5.53084 13.8131C6.26684 13.8131 6.84818 13.6531 7.27484 13.3331C7.70151 13.0024 7.91484 12.6184 7.91484 12.1811C7.91484 11.7331 7.78151 11.3811 7.51484 11.1251C7.25884 10.8691 6.87484 10.6557 6.36284 10.4851L4.58684 9.82906C3.75484 9.55173 3.12551 9.22106 2.69884 8.83706C2.27218 8.45306 2.05884 7.89306 2.05884 7.15706C2.05884 6.4104 2.35751 5.79173 2.95484 5.30106C3.55218 4.79973 4.38951 4.54906 5.46684 4.54906C6.54418 4.54906 7.36551 4.78906 7.93084 5.26906C8.50684 5.7384 8.83751 6.37306 8.92284 7.17306H7.69084ZM13.2023 8.30906C13.7037 7.4024 14.4503 6.94906 15.4423 6.94906C16.445 6.94906 17.277 7.31706 17.9383 8.05306C18.6103 8.78906 18.9463 9.75973 18.9463 10.9651C18.9463 12.1704 18.6103 13.1411 17.9383 13.8771C17.2663 14.6024 16.4397 14.9651 15.4583 14.9651C14.477 14.9651 13.7517 14.5971 13.2823 13.8611V18.5491H12.0183V7.14106H13.0583L13.2023 8.30906ZM15.3943 13.8451C15.9917 13.8451 16.5143 13.5891 16.9623 13.0771C17.421 12.5651 17.6503 11.8664 17.6503 10.9811C17.6503 10.0851 17.4317 9.37573 16.9943 8.85306C16.5677 8.3304 16.045 8.06906 15.4263 8.06906C14.8077 8.06906 14.301 8.2664 13.9063 8.66106C13.5117 9.04506 13.3037 9.56773 13.2823 10.2291V11.6851C13.2823 12.3571 13.485 12.8851 13.8903 13.2691C14.2957 13.6531 14.797 13.8451 15.3943 13.8451ZM24.1583 13.9411C25.2143 13.9411 25.817 13.4771 25.9663 12.5491H27.2623C27.145 13.3171 26.8037 13.9144 26.2383 14.3411C25.6837 14.7571 24.9903 14.9651 24.1583 14.9651C23.1343 14.9651 22.3023 14.6024 21.6623 13.8771C21.0223 13.1411 20.7023 12.1651 20.7023 10.9491C20.7023 9.73306 21.0223 8.7624 21.6623 8.03706C22.313 7.31173 23.1717 6.94906 24.2383 6.94906C25.3157 6.94906 26.1157 7.36506 26.6383 8.19706C27.1717 9.02906 27.3583 10.0424 27.1983 11.2371H21.9663C21.9663 12.0264 22.1583 12.6771 22.5423 13.1891C22.9263 13.6904 23.465 13.9411 24.1583 13.9411ZM25.0863 8.14906C24.841 8.02106 24.5423 7.95706 24.1903 7.95706C23.5397 7.95706 23.0223 8.18106 22.6383 8.62906C22.265 9.0664 22.0463 9.61573 21.9823 10.2771H26.0623C26.0623 9.2104 25.737 8.50106 25.0863 8.14906ZM32.2967 6.94906C33.2034 6.94906 33.9234 7.18373 34.4567 7.65306C34.9901 8.11173 35.3367 8.68773 35.4967 9.38106L34.2167 9.49306C34.0781 9.04506 33.8541 8.6984 33.5447 8.45306C33.2354 8.19706 32.8941 8.06906 32.5207 8.06906C31.8381 8.06906 31.2834 8.32506 30.8567 8.83706C30.4407 9.34906 30.2327 10.0477 30.2327 10.9331C30.2327 11.8077 30.4354 12.5117 30.8407 13.0451C31.2567 13.5784 31.7687 13.8451 32.3767 13.8451C32.9954 13.8451 33.4541 13.7064 33.7527 13.4291C34.0621 13.1411 34.2167 12.7357 34.2167 12.2131H35.5127C35.5127 13.0344 35.2247 13.7011 34.6487 14.2131C34.0834 14.7144 33.3421 14.9651 32.4247 14.9651C31.4541 14.9651 30.6274 14.5971 29.9447 13.8611C29.2727 13.1251 28.9367 12.1491 28.9367 10.9331C28.9367 9.7064 29.2727 8.73573 29.9447 8.02106C30.6167 7.3064 31.4007 6.94906 32.2967 6.94906ZM38.0671 7.12506H39.3311V14.7891H38.0671V7.12506ZM38.6911 5.33306C38.4351 5.33306 38.2324 5.26373 38.0831 5.12506C37.9444 4.97573 37.8751 4.78373 37.8751 4.54906C37.8751 4.30373 37.9444 4.11173 38.0831 3.97306C38.2324 3.82373 38.4351 3.74906 38.6911 3.74906C38.9471 3.74906 39.1498 3.82373 39.2991 3.97306C39.4591 4.11173 39.5391 4.30373 39.5391 4.54906C39.5391 4.78373 39.4591 4.97573 39.2991 5.12506C39.1498 5.26373 38.9471 5.33306 38.6911 5.33306ZM47.5043 9.82906C47.5043 9.13573 47.3603 8.63973 47.0723 8.34106C46.7843 8.0424 46.363 7.89306 45.8083 7.89306C45.2643 7.89306 44.8217 8.00506 44.4803 8.22906C44.1497 8.4424 43.9843 8.78373 43.9843 9.25306H42.5923C42.5923 8.07973 43.2217 7.3544 44.4803 7.07706C44.8643 6.99173 45.2803 6.94906 45.7283 6.94906C46.6777 6.94906 47.419 7.18906 47.9523 7.66906C48.4857 8.14906 48.7523 8.87973 48.7523 9.86106V14.7891H47.6643L47.5363 13.5091C47.067 14.4797 46.219 14.9651 44.9923 14.9651C44.171 14.9651 43.5097 14.7357 43.0083 14.2771C42.5177 13.8184 42.2723 13.2477 42.2723 12.5651C42.2723 11.8824 42.5443 11.3491 43.0883 10.9651C43.643 10.5811 44.331 10.3891 45.1523 10.3891C45.9737 10.3891 46.7577 10.5277 47.5043 10.8051V9.82906ZM47.5043 11.6051C46.747 11.3917 46.0857 11.2851 45.5203 11.2851C44.955 11.2851 44.4963 11.3864 44.1443 11.5891C43.7923 11.7917 43.6163 12.1117 43.6163 12.5491C43.6163 13.5091 44.1603 13.9891 45.2483 13.9891C45.867 13.9891 46.395 13.7704 46.8323 13.3331C47.2803 12.8851 47.5043 12.3091 47.5043 11.6051ZM51.7215 3.89306H52.9855V14.7891H51.7215V3.89306ZM62.9623 4.72506C64.477 4.72506 65.6877 5.18373 66.5943 6.10106C67.5117 7.00773 67.9703 8.22906 67.9703 9.76506C67.9703 11.2904 67.5117 12.5117 66.5943 13.4291C65.6877 14.3357 64.477 14.7891 62.9623 14.7891H60.0023V4.72506H62.9623ZM61.2663 13.6851H62.9623C64.0823 13.6851 64.973 13.3171 65.6343 12.5811C66.2957 11.8344 66.6263 10.8904 66.6263 9.74906C66.6263 8.60773 66.2903 7.6744 65.6183 6.94906C64.957 6.21306 64.0717 5.84506 62.9623 5.84506H61.2663V13.6851ZM73.2365 13.9411C74.2925 13.9411 74.8951 13.4771 75.0445 12.5491H76.3405C76.2231 13.3171 75.8818 13.9144 75.3165 14.3411C74.7618 14.7571 74.0685 14.9651 73.2365 14.9651C72.2125 14.9651 71.3805 14.6024 70.7405 13.8771C70.1005 13.1411 69.7805 12.1651 69.7805 10.9491C69.7805 9.73306 70.1005 8.7624 70.7405 8.03706C71.3911 7.31173 72.2498 6.94906 73.3165 6.94906C74.3938 6.94906 75.1938 7.36506 75.7165 8.19706C76.2498 9.02906 76.4365 10.0424 76.2765 11.2371H71.0445C71.0445 12.0264 71.2365 12.6771 71.6205 13.1891C72.0045 13.6904 72.5431 13.9411 73.2365 13.9411ZM74.1645 8.14906C73.9191 8.02106 73.6205 7.95706 73.2685 7.95706C72.6178 7.95706 72.1005 8.18106 71.7165 8.62906C71.3431 9.0664 71.1245 9.61573 71.0605 10.2771H75.1405C75.1405 9.2104 74.8151 8.50106 74.1645 8.14906ZM82.5428 4.96506C82.1908 4.8264 81.9135 4.75706 81.7108 4.75706C81.3375 4.75706 81.0442 4.84773 80.8308 5.02906C80.6175 5.2104 80.5108 5.5304 80.5108 5.98906V7.14106H82.0948V8.00506H80.5108V14.7891H79.2628V8.00506H77.9988V7.14106H79.2628V5.97306C79.2628 5.21573 79.4708 4.66106 79.8868 4.30906C80.3028 3.9464 80.7828 3.76506 81.3268 3.76506C81.8708 3.76506 82.3508 3.8344 82.7668 3.97306L82.5428 4.96506ZM86.9552 13.9411C88.0112 13.9411 88.6139 13.4771 88.7632 12.5491H90.0592C89.9419 13.3171 89.6006 13.9144 89.0352 14.3411C88.4806 14.7571 87.7872 14.9651 86.9552 14.9651C85.9312 14.9651 85.0992 14.6024 84.4592 13.8771C83.8192 13.1411 83.4992 12.1651 83.4992 10.9491C83.4992 9.73306 83.8192 8.7624 84.4592 8.03706C85.1099 7.31173 85.9686 6.94906 87.0352 6.94906C88.1126 6.94906 88.9126 7.36506 89.4352 8.19706C89.9686 9.02906 90.1552 10.0424 89.9952 11.2371H84.7632C84.7632 12.0264 84.9552 12.6771 85.3392 13.1891C85.7232 13.6904 86.2619 13.9411 86.9552 13.9411ZM87.8832 8.14906C87.6379 8.02106 87.3392 7.95706 86.9872 7.95706C86.3366 7.95706 85.8192 8.18106 85.4352 8.62906C85.0619 9.0664 84.8432 9.61573 84.7792 10.2771H88.8592C88.8592 9.2104 88.5339 8.50106 87.8832 8.14906ZM93.7656 8.61306C94.2669 7.50373 95.1256 6.94906 96.3416 6.94906C97.2483 6.94906 97.9523 7.24773 98.4536 7.84506C98.9656 8.4424 99.2216 9.2584 99.2216 10.2931V14.7891H97.9736V10.2931C97.9736 9.55706 97.7976 9.0024 97.4456 8.62906C97.1043 8.25573 96.6136 8.06906 95.9736 8.06906C95.3336 8.06906 94.8163 8.3304 94.4216 8.85306C94.0269 9.37573 93.8189 10.1011 93.7976 11.0291V14.7891H92.5336V7.14106H93.6216L93.7656 8.61306ZM101.79 9.01306C101.79 8.38373 102.057 7.8824 102.59 7.50906C103.134 7.13573 103.865 6.94906 104.782 6.94906C105.7 6.94906 106.414 7.14106 106.926 7.52506C107.449 7.90906 107.721 8.3944 107.742 8.98106H106.51C106.414 8.28773 105.828 7.94106 104.75 7.94106C104.228 7.94106 103.822 8.0584 103.534 8.29306C103.257 8.52773 103.118 8.78373 103.118 9.06106C103.118 9.32773 103.225 9.55706 103.438 9.74906C103.652 9.9304 103.993 10.0904 104.462 10.2291L105.998 10.7411C106.649 10.9437 107.145 11.2051 107.486 11.5251C107.838 11.8344 108.014 12.2664 108.014 12.8211C108.014 13.3651 107.732 13.8611 107.166 14.3091C106.601 14.7464 105.812 14.9651 104.798 14.9651C103.785 14.9651 102.996 14.7411 102.43 14.2931C101.865 13.8344 101.566 13.2477 101.534 12.5331H102.75C102.772 13.0131 102.964 13.3757 103.326 13.6211C103.7 13.8557 104.164 13.9731 104.718 13.9731C105.273 13.9731 105.732 13.8557 106.094 13.6211C106.457 13.3864 106.638 13.1091 106.638 12.7891C106.638 12.4584 106.532 12.2077 106.318 12.0371C106.105 11.8664 105.758 11.7171 105.278 11.5891L103.79 11.0931C102.457 10.6984 101.79 10.0051 101.79 9.01306ZM113.252 13.9411C114.308 13.9411 114.911 13.4771 115.06 12.5491H116.356C116.239 13.3171 115.897 13.9144 115.332 14.3411C114.777 14.7571 114.084 14.9651 113.252 14.9651C112.228 14.9651 111.396 14.6024 110.756 13.8771C110.116 13.1411 109.796 12.1651 109.796 10.9491C109.796 9.73306 110.116 8.7624 110.756 8.03706C111.407 7.31173 112.265 6.94906 113.332 6.94906C114.409 6.94906 115.209 7.36506 115.732 8.19706C116.265 9.02906 116.452 10.0424 116.292 11.2371H111.06C111.06 12.0264 111.252 12.6771 111.636 13.1891C112.02 13.6904 112.559 13.9411 113.252 13.9411ZM114.18 8.14906C113.935 8.02106 113.636 7.95706 113.284 7.95706C112.633 7.95706 112.116 8.18106 111.732 8.62906C111.359 9.0664 111.14 9.61573 111.076 10.2771H115.156C115.156 9.2104 114.831 8.50106 114.18 8.14906Z" fill="#FDFDFD"/>
<rect x="0.714844" y="36.4531" width="168.397" height="7.05474" rx="3.52737" fill="#F6F7F9"/>
<rect x="0.714844" y="36.4531" width="138.783" height="7.05474" rx="3.52737" fill="#F5DB13"/>
<path d="M1.38684 20.8062C2.18684 20.6889 2.89084 20.4062 3.49884 19.9582H4.92284V30.4062H3.03484V22.2142C2.49084 22.4809 1.94151 22.6142 1.38684 22.6142V20.8062ZM11.4896 19.8142C12.1296 19.8142 12.7109 19.9262 13.2336 20.1502C13.7669 20.3636 14.2203 20.6942 14.5936 21.1422C15.4043 22.0916 15.8096 23.4516 15.8096 25.2222C15.8096 26.9929 15.4043 28.3529 14.5936 29.3022C13.8469 30.1876 12.8176 30.6303 11.5056 30.6303C10.1829 30.6303 9.14293 30.1876 8.38559 29.3022C7.58559 28.3742 7.18559 27.0142 7.18559 25.2222C7.18559 23.4302 7.58559 22.0702 8.38559 21.1422C9.14293 20.2569 10.1776 19.8142 11.4896 19.8142ZM13.8576 25.2222C13.8576 24.0276 13.6496 23.1156 13.2336 22.4862C12.8283 21.8462 12.2469 21.5262 11.4896 21.5262C10.7429 21.5262 10.1616 21.8462 9.74559 22.4862C9.34026 23.1156 9.13759 24.0276 9.13759 25.2222C9.13759 26.4169 9.34026 27.3289 9.74559 27.9582C10.1616 28.5769 10.7429 28.8862 11.4896 28.8862C12.2469 28.8862 12.8283 28.5769 13.2336 27.9582C13.6496 27.3289 13.8576 26.4169 13.8576 25.2222ZM21.6146 19.8142C22.2546 19.8142 22.8359 19.9262 23.3586 20.1502C23.8919 20.3636 24.3453 20.6942 24.7186 21.1422C25.5293 22.0916 25.9346 23.4516 25.9346 25.2222C25.9346 26.9929 25.5293 28.3529 24.7186 29.3022C23.9719 30.1876 22.9426 30.6303 21.6306 30.6303C20.3079 30.6303 19.2679 30.1876 18.5106 29.3022C17.7106 28.3742 17.3106 27.0142 17.3106 25.2222C17.3106 23.4302 17.7106 22.0702 18.5106 21.1422C19.2679 20.2569 20.3026 19.8142 21.6146 19.8142ZM23.9826 25.2222C23.9826 24.0276 23.7746 23.1156 23.3586 22.4862C22.9533 21.8462 22.3719 21.5262 21.6146 21.5262C20.8679 21.5262 20.2866 21.8462 19.8706 22.4862C19.4653 23.1156 19.2626 24.0276 19.2626 25.2222C19.2626 26.4169 19.4653 27.3289 19.8706 27.9582C20.2866 28.5769 20.8679 28.8862 21.6146 28.8862C22.3719 28.8862 22.9533 28.5769 23.3586 27.9582C23.7746 27.3289 23.9826 26.4169 23.9826 25.2222ZM31.7396 19.8142C32.3796 19.8142 32.9609 19.9262 33.4836 20.1502C34.0169 20.3636 34.4703 20.6942 34.8436 21.1422C35.6543 22.0916 36.0596 23.4516 36.0596 25.2222C36.0596 26.9929 35.6543 28.3529 34.8436 29.3022C34.0969 30.1876 33.0676 30.6303 31.7556 30.6303C30.4329 30.6303 29.3929 30.1876 28.6356 29.3022C27.8356 28.3742 27.4356 27.0142 27.4356 25.2222C27.4356 23.4302 27.8356 22.0702 28.6356 21.1422C29.3929 20.2569 30.4276 19.8142 31.7396 19.8142ZM34.1076 25.2222C34.1076 24.0276 33.8996 23.1156 33.4836 22.4862C33.0783 21.8462 32.4969 21.5262 31.7396 21.5262C30.9929 21.5262 30.4116 21.8462 29.9956 22.4862C29.5903 23.1156 29.3876 24.0276 29.3876 25.2222C29.3876 26.4169 29.5903 27.3289 29.9956 27.9582C30.4116 28.5769 30.9929 28.8862 31.7396 28.8862C32.4969 28.8862 33.0783 28.5769 33.4836 27.9582C33.8996 27.3289 34.1076 26.4169 34.1076 25.2222ZM38.6646 30.4863C38.3659 30.4329 38.1099 30.3156 37.8966 30.1342C37.6939 29.9422 37.5926 29.6916 37.5926 29.3822C37.5926 29.0622 37.7153 28.7902 37.9606 28.5662C38.2059 28.3422 38.5419 28.2302 38.9686 28.2302C39.3953 28.2302 39.7419 28.3956 40.0086 28.7262C40.2753 29.0569 40.4086 29.4622 40.4086 29.9422C40.4086 30.7209 40.0566 31.4303 39.3526 32.0703C39.1286 32.2729 38.8779 32.4436 38.6006 32.5823L37.1926 31.8783C37.5446 31.6969 37.8539 31.4943 38.1206 31.2703C38.3979 31.0463 38.5793 30.7849 38.6646 30.4863ZM45.9115 19.8142C46.5515 19.8142 47.1328 19.9262 47.6555 20.1502C48.1888 20.3636 48.6421 20.6942 49.0155 21.1422C49.8261 22.0916 50.2315 23.4516 50.2315 25.2222C50.2315 26.9929 49.8261 28.3529 49.0155 29.3022C48.2688 30.1876 47.2395 30.6303 45.9275 30.6303C44.6048 30.6303 43.5648 30.1876 42.8075 29.3022C42.0075 28.3742 41.6075 27.0142 41.6075 25.2222C41.6075 23.4302 42.0075 22.0702 42.8075 21.1422C43.5648 20.2569 44.5995 19.8142 45.9115 19.8142ZM48.2795 25.2222C48.2795 24.0276 48.0715 23.1156 47.6555 22.4862C47.2501 21.8462 46.6688 21.5262 45.9115 21.5262C45.1648 21.5262 44.5835 21.8462 44.1675 22.4862C43.7621 23.1156 43.5595 24.0276 43.5595 25.2222C43.5595 26.4169 43.7621 27.3289 44.1675 27.9582C44.5835 28.5769 45.1648 28.8862 45.9115 28.8862C46.6688 28.8862 47.2501 28.5769 47.6555 27.9582C48.0715 27.3289 48.2795 26.4169 48.2795 25.2222ZM56.0365 19.8142C56.6765 19.8142 57.2578 19.9262 57.7805 20.1502C58.3138 20.3636 58.7671 20.6942 59.1405 21.1422C59.9511 22.0916 60.3565 23.4516 60.3565 25.2222C60.3565 26.9929 59.9511 28.3529 59.1405 29.3022C58.3938 30.1876 57.3645 30.6303 56.0525 30.6303C54.7298 30.6303 53.6898 30.1876 52.9325 29.3022C52.1325 28.3742 51.7325 27.0142 51.7325 25.2222C51.7325 23.4302 52.1325 22.0702 52.9325 21.1422C53.6898 20.2569 54.7245 19.8142 56.0365 19.8142ZM58.4045 25.2222C58.4045 24.0276 58.1965 23.1156 57.7805 22.4862C57.3751 21.8462 56.7938 21.5262 56.0365 21.5262C55.2898 21.5262 54.7085 21.8462 54.2925 22.4862C53.8871 23.1156 53.6845 24.0276 53.6845 25.2222C53.6845 26.4169 53.8871 27.3289 54.2925 27.9582C54.7085 28.5769 55.2898 28.8862 56.0365 28.8862C56.7938 28.8862 57.3751 28.5769 57.7805 27.9582C58.1965 27.3289 58.4045 26.4169 58.4045 25.2222ZM66.1615 19.8142C66.8015 19.8142 67.3828 19.9262 67.9055 20.1502C68.4388 20.3636 68.8921 20.6942 69.2655 21.1422C70.0761 22.0916 70.4815 23.4516 70.4815 25.2222C70.4815 26.9929 70.0761 28.3529 69.2655 29.3022C68.5188 30.1876 67.4895 30.6303 66.1775 30.6303C64.8548 30.6303 63.8148 30.1876 63.0575 29.3022C62.2575 28.3742 61.8575 27.0142 61.8575 25.2222C61.8575 23.4302 62.2575 22.0702 63.0575 21.1422C63.8148 20.2569 64.8495 19.8142 66.1615 19.8142ZM68.5295 25.2222C68.5295 24.0276 68.3215 23.1156 67.9055 22.4862C67.5001 21.8462 66.9188 21.5262 66.1615 21.5262C65.4148 21.5262 64.8335 21.8462 64.4175 22.4862C64.0121 23.1156 63.8095 24.0276 63.8095 25.2222C63.8095 26.4169 64.0121 27.3289 64.4175 27.9582C64.8335 28.5769 65.4148 28.8862 66.1615 28.8862C66.9188 28.8862 67.5001 28.5769 67.9055 27.9582C68.3215 27.3289 68.5295 26.4169 68.5295 25.2222Z" fill="#FDFDFD"/>
</svg>
